<svg width="289" height="289" viewBox="0 0 289 289" fill="none" xmlns="http://www.w3.org/2000/svg">
<mask id="mask0_67_1117" style="mask-type:alpha" maskUnits="userSpaceOnUse" x="0" y="0" width="289" height="289">
<rect width="289" height="289" fill="#93DCDC"/>
</mask>
<g mask="url(#mask0_67_1117)">
<rect width="289" height="289" fill="#1C528A"/>
<path d="M55.02 69.02H59.44V72H51.08V57.84H55.02V69.02ZM65.0838 60.64C65.8704 60.64 66.5504 60.8133 67.1238 61.16C67.7104 61.4933 68.1438 61.96 68.4238 62.56V60.78H72.3438V72H68.4238V70.22C68.1438 70.82 67.7104 71.2933 67.1238 71.64C66.5504 71.9733 65.8704 72.14 65.0838 72.14C64.1904 72.14 63.3838 71.9133 62.6638 71.46C61.9438 70.9933 61.3771 70.3267 60.9638 69.46C60.5504 68.58 60.3438 67.5533 60.3438 66.38C60.3438 65.2067 60.5504 64.1867 60.9638 63.32C61.3771 62.4533 61.9438 61.7933 62.6638 61.34C63.3838 60.8733 64.1904 60.64 65.0838 60.64ZM66.3838 64.08C65.7704 64.08 65.2704 64.2867 64.8838 64.7C64.5104 65.1 64.3238 65.66 64.3238 66.38C64.3238 67.1133 64.5104 67.6867 64.8838 68.1C65.2704 68.5 65.7704 68.7 66.3838 68.7C66.9704 68.7 67.4571 68.4933 67.8438 68.08C68.2304 67.6667 68.4238 67.1 68.4238 66.38C68.4238 65.6733 68.2304 65.1133 67.8438 64.7C67.4571 64.2867 66.9704 64.08 66.3838 64.08ZM81.998 60.68C83.2913 60.68 84.3046 61.1133 85.038 61.98C85.7713 62.8333 86.138 64 86.138 65.48V72H82.238V65.98C82.238 65.3267 82.0646 64.82 81.718 64.46C81.3846 64.0867 80.9313 63.9 80.358 63.9C79.7713 63.9 79.3046 64.0933 78.958 64.48C78.6113 64.8533 78.438 65.3733 78.438 66.04V72H74.498V60.78H78.438V62.66C78.758 62.06 79.2246 61.58 79.838 61.22C80.4513 60.86 81.1713 60.68 81.998 60.68ZM92.3884 60.64C93.1751 60.64 93.8551 60.8133 94.4284 61.16C95.0151 61.4933 95.4484 61.96 95.7284 62.56V60.78H99.6484V71.88C99.6484 72.92 99.4484 73.86 99.0484 74.7C98.6484 75.5533 98.0284 76.2333 97.1884 76.74C96.3484 77.2467 95.2884 77.5 94.0084 77.5C92.2618 77.5 90.8684 77.0933 89.8284 76.28C88.8018 75.4667 88.2018 74.3533 88.0284 72.94H91.8884C91.9818 73.3133 92.1818 73.6 92.4884 73.8C92.7951 74 93.2084 74.1 93.7284 74.1C95.0618 74.1 95.7284 73.36 95.7284 71.88V70.22C95.4484 70.82 95.0151 71.2933 94.4284 71.64C93.8551 71.9733 93.1751 72.14 92.3884 72.14C91.4951 72.14 90.6884 71.9133 89.9684 71.46C89.2484 70.9933 88.6818 70.3267 88.2684 69.46C87.8551 68.58 87.6484 67.5533 87.6484 66.38C87.6484 65.2067 87.8551 64.1867 88.2684 63.32C88.6818 62.4533 89.2484 61.7933 89.9684 61.34C90.6884 60.8733 91.4951 60.64 92.3884 60.64ZM93.6884 64.08C93.0751 64.08 92.5751 64.2867 92.1884 64.7C91.8151 65.1 91.6284 65.66 91.6284 66.38C91.6284 67.1133 91.8151 67.6867 92.1884 68.1C92.5751 68.5 93.0751 68.7 93.6884 68.7C94.2751 68.7 94.7618 68.4933 95.1484 68.08C95.5351 67.6667 95.7284 67.1 95.7284 66.38C95.7284 65.6733 95.5351 65.1133 95.1484 64.7C94.7618 64.2867 94.2751 64.08 93.6884 64.08ZM113.323 60.78V72H109.403V70.12C109.083 70.72 108.616 71.2 108.003 71.56C107.389 71.92 106.669 72.1 105.843 72.1C104.549 72.1 103.529 71.6733 102.783 70.82C102.049 69.9533 101.683 68.7733 101.683 67.28V60.78H105.603V66.8C105.603 67.44 105.769 67.9467 106.103 68.32C106.449 68.68 106.909 68.86 107.483 68.86C108.069 68.86 108.536 68.6733 108.883 68.3C109.229 67.9267 109.403 67.4 109.403 66.72V60.78H113.323ZM119.654 60.64C120.441 60.64 121.121 60.8133 121.694 61.16C122.281 61.4933 122.714 61.96 122.994 62.56V60.78H126.914V72H122.994V70.22C122.714 70.82 122.281 71.2933 121.694 71.64C121.121 71.9733 120.441 72.14 119.654 72.14C118.761 72.14 117.954 71.9133 117.234 71.46C116.514 70.9933 115.947 70.3267 115.534 69.46C115.121 68.58 114.914 67.5533 114.914 66.38C114.914 65.2067 115.121 64.1867 115.534 63.32C115.947 62.4533 116.514 61.7933 117.234 61.34C117.954 60.8733 118.761 60.64 119.654 60.64ZM120.954 64.08C120.341 64.08 119.841 64.2867 119.454 64.7C119.081 65.1 118.894 65.66 118.894 66.38C118.894 67.1133 119.081 67.6867 119.454 68.1C119.841 68.5 120.341 68.7 120.954 68.7C121.541 68.7 122.027 68.4933 122.414 68.08C122.801 67.6667 122.994 67.1 122.994 66.38C122.994 65.6733 122.801 65.1133 122.414 64.7C122.027 64.2867 121.541 64.08 120.954 64.08ZM133.228 60.64C134.015 60.64 134.695 60.8133 135.268 61.16C135.855 61.4933 136.288 61.96 136.568 62.56V60.78H140.488V71.88C140.488 72.92 140.288 73.86 139.888 74.7C139.488 75.5533 138.868 76.2333 138.028 76.74C137.188 77.2467 136.128 77.5 134.848 77.5C133.102 77.5 131.708 77.0933 130.668 76.28C129.642 75.4667 129.042 74.3533 128.868 72.94H132.728C132.822 73.3133 133.022 73.6 133.328 73.8C133.635 74 134.048 74.1 134.568 74.1C135.902 74.1 136.568 73.36 136.568 71.88V70.22C136.288 70.82 135.855 71.2933 135.268 71.64C134.695 71.9733 134.015 72.14 133.228 72.14C132.335 72.14 131.528 71.9133 130.808 71.46C130.088 70.9933 129.522 70.3267 129.108 69.46C128.695 68.58 128.488 67.5533 128.488 66.38C128.488 65.2067 128.695 64.1867 129.108 63.32C129.522 62.4533 130.088 61.7933 130.808 61.34C131.528 60.8733 132.335 60.64 133.228 60.64ZM134.528 64.08C133.915 64.08 133.415 64.2867 133.028 64.7C132.655 65.1 132.468 65.66 132.468 66.38C132.468 67.1133 132.655 67.6867 133.028 68.1C133.415 68.5 133.915 68.7 134.528 68.7C135.115 68.7 135.602 68.4933 135.988 68.08C136.375 67.6667 136.568 67.1 136.568 66.38C136.568 65.6733 136.375 65.1133 135.988 64.7C135.602 64.2867 135.115 64.08 134.528 64.08ZM153.423 66.18C153.423 66.46 153.389 66.7667 153.322 67.1H145.903C145.969 68.3667 146.523 69 147.563 69C147.949 69 148.269 68.9067 148.523 68.72C148.776 68.5333 148.949 68.2867 149.043 67.98H153.203C153.056 68.7667 152.729 69.48 152.223 70.12C151.716 70.7467 151.076 71.24 150.303 71.6C149.529 71.96 148.683 72.14 147.763 72.14C146.643 72.14 145.649 71.9133 144.783 71.46C143.929 70.9933 143.263 70.3267 142.783 69.46C142.303 68.58 142.063 67.5533 142.063 66.38C142.063 65.2067 142.303 64.1867 142.783 63.32C143.263 62.4533 143.936 61.7933 144.803 61.34C145.669 60.8733 146.656 60.64 147.763 60.64C148.883 60.64 149.869 60.8667 150.723 61.32C151.576 61.7733 152.236 62.42 152.703 63.26C153.183 64.1 153.423 65.0733 153.423 66.18ZM149.423 65.46C149.436 64.8867 149.283 64.4533 148.963 64.16C148.643 63.8667 148.243 63.72 147.763 63.72C147.243 63.72 146.816 63.8667 146.483 64.16C146.163 64.4533 145.976 64.8867 145.923 65.46H149.423ZM159.266 60.64C160.746 60.64 161.926 61 162.806 61.72C163.686 62.44 164.239 63.3933 164.466 64.58H160.786C160.692 64.18 160.499 63.88 160.206 63.68C159.926 63.48 159.579 63.38 159.166 63.38C158.872 63.38 158.646 63.4467 158.486 63.58C158.339 63.7 158.266 63.8733 158.266 64.1C158.266 64.38 158.426 64.5933 158.746 64.74C159.079 64.8733 159.619 65.0267 160.366 65.2C161.232 65.3867 161.946 65.5867 162.506 65.8C163.079 66.0133 163.572 66.36 163.986 66.84C164.412 67.32 164.626 67.9667 164.626 68.78C164.626 69.4333 164.446 70.0133 164.086 70.52C163.726 71.0267 163.199 71.4267 162.506 71.72C161.826 72 161.019 72.14 160.086 72.14C158.512 72.14 157.259 71.8 156.326 71.12C155.392 70.44 154.826 69.4667 154.626 68.2H158.406C158.459 68.6133 158.632 68.92 158.926 69.12C159.232 69.32 159.612 69.42 160.066 69.42C160.372 69.42 160.606 69.3533 160.766 69.22C160.926 69.0867 161.006 68.9133 161.006 68.7C161.006 68.38 160.832 68.1467 160.486 68C160.152 67.8533 159.612 67.7067 158.866 67.56C158.012 67.3867 157.312 67.2 156.766 67C156.219 66.7867 155.739 66.4533 155.326 66C154.926 65.5333 154.726 64.8933 154.726 64.08C154.726 63.0667 155.119 62.24 155.906 61.6C156.692 60.96 157.812 60.64 159.266 60.64Z" fill="white"/>
<path d="M51.296 115.006C51.296 114.538 51.404 114.112 51.62 113.728C51.848 113.332 52.154 113.026 52.538 112.81C52.934 112.582 53.36 112.468 53.816 112.468C54.284 112.468 54.71 112.582 55.094 112.81C55.478 113.026 55.778 113.332 55.994 113.728C56.222 114.112 56.336 114.538 56.336 115.006C56.336 115.462 56.222 115.882 55.994 116.266C55.778 116.65 55.478 116.956 55.094 117.184C54.71 117.4 54.284 117.508 53.816 117.508C53.36 117.508 52.934 117.4 52.538 117.184C52.154 116.956 51.848 116.65 51.62 116.266C51.404 115.882 51.296 115.462 51.296 115.006ZM68.0288 108.292V117.256C68.0288 118.48 67.6868 119.434 67.0028 120.118C66.3308 120.79 65.3948 121.126 64.1948 121.126C62.8988 121.126 61.8728 120.754 61.1168 120.01C60.3608 119.266 59.9828 118.204 59.9828 116.824H62.4848C62.4848 117.472 62.6168 117.97 62.8808 118.318C63.1568 118.666 63.5588 118.84 64.0868 118.84C64.5668 118.84 64.9208 118.702 65.1488 118.426C65.3768 118.138 65.4908 117.748 65.4908 117.256V108.292H68.0288ZM73.2113 110.902C74.0513 110.902 74.7713 111.1 75.3713 111.496C75.9713 111.892 76.3973 112.426 76.6493 113.098V111.028H79.1693V121H76.6493V118.912C76.3973 119.584 75.9713 120.124 75.3713 120.532C74.7713 120.928 74.0513 121.126 73.2113 121.126C72.3713 121.126 71.6153 120.922 70.9433 120.514C70.2713 120.106 69.7433 119.518 69.3593 118.75C68.9873 117.97 68.8013 117.058 68.8013 116.014C68.8013 114.97 68.9873 114.064 69.3593 113.296C69.7433 112.516 70.2713 111.922 70.9433 111.514C71.6153 111.106 72.3713 110.902 73.2113 110.902ZM74.0033 113.116C73.2113 113.116 72.5753 113.374 72.0953 113.89C71.6153 114.406 71.3753 115.114 71.3753 116.014C71.3753 116.914 71.6153 117.622 72.0953 118.138C72.5753 118.642 73.2113 118.894 74.0033 118.894C74.7713 118.894 75.4013 118.636 75.8933 118.12C76.3973 117.592 76.6493 116.89 76.6493 116.014C76.6493 115.126 76.3973 114.424 75.8933 113.908C75.4013 113.38 74.7713 113.116 74.0033 113.116ZM84.8623 118.462L87.3823 111.028H90.0823L86.3923 121H83.2963L79.6063 111.028H82.3243L84.8623 118.462ZM94.4541 110.902C95.2941 110.902 96.0141 111.1 96.6141 111.496C97.2141 111.892 97.6401 112.426 97.8921 113.098V111.028H100.412V121H97.8921V118.912C97.6401 119.584 97.2141 120.124 96.6141 120.532C96.0141 120.928 95.2941 121.126 94.4541 121.126C93.6141 121.126 92.8581 120.922 92.1861 120.514C91.5141 120.106 90.9861 119.518 90.6021 118.75C90.2301 117.97 90.0441 117.058 90.0441 116.014C90.0441 114.97 90.2301 114.064 90.6021 113.296C90.9861 112.516 91.5141 111.922 92.1861 111.514C92.8581 111.106 93.6141 110.902 94.4541 110.902ZM95.2461 113.116C94.4541 113.116 93.8181 113.374 93.3381 113.89C92.8581 114.406 92.6181 115.114 92.6181 116.014C92.6181 116.914 92.8581 117.622 93.3381 118.138C93.8181 118.642 94.4541 118.894 95.2461 118.894C96.0141 118.894 96.6441 118.636 97.1361 118.12C97.6401 117.592 97.8921 116.89 97.8921 116.014C97.8921 115.126 97.6401 114.424 97.1361 113.908C96.6441 113.38 96.0141 113.116 95.2461 113.116ZM110.497 117.526C110.497 118.174 110.335 118.774 110.011 119.326C109.687 119.866 109.207 120.304 108.571 120.64C107.935 120.964 107.161 121.126 106.249 121.126C105.349 121.126 104.545 120.976 103.837 120.676C103.129 120.364 102.559 119.92 102.127 119.344C101.707 118.768 101.467 118.096 101.407 117.328H104.107C104.167 117.844 104.371 118.276 104.719 118.624C105.079 118.96 105.553 119.128 106.141 119.128C106.669 119.128 107.071 118.99 107.347 118.714C107.635 118.426 107.779 118.06 107.779 117.616C107.779 117.22 107.665 116.896 107.437 116.644C107.209 116.38 106.921 116.17 106.573 116.014C106.225 115.858 105.745 115.678 105.133 115.474C104.341 115.21 103.693 114.952 103.189 114.7C102.685 114.436 102.253 114.058 101.893 113.566C101.545 113.074 101.371 112.432 101.371 111.64C101.371 110.548 101.761 109.69 102.541 109.066C103.333 108.43 104.377 108.112 105.673 108.112C107.017 108.112 108.085 108.436 108.877 109.084C109.681 109.732 110.137 110.596 110.245 111.676H107.509C107.437 111.22 107.245 110.848 106.933 110.56C106.621 110.26 106.195 110.11 105.655 110.11C105.187 110.11 104.809 110.236 104.521 110.488C104.233 110.728 104.089 111.082 104.089 111.55C104.089 111.922 104.197 112.234 104.413 112.486C104.641 112.726 104.923 112.924 105.259 113.08C105.607 113.236 106.075 113.41 106.663 113.602C107.479 113.89 108.139 114.16 108.643 114.412C109.159 114.664 109.597 115.042 109.957 115.546C110.317 116.05 110.497 116.71 110.497 117.526ZM115.904 110.902C117.188 110.902 118.256 111.25 119.108 111.946C119.972 112.642 120.512 113.59 120.728 114.79H118.046C117.938 114.262 117.692 113.848 117.308 113.548C116.924 113.236 116.438 113.08 115.85 113.08C115.178 113.08 114.614 113.332 114.158 113.836C113.714 114.328 113.492 115.054 113.492 116.014C113.492 116.974 113.714 117.706 114.158 118.21C114.614 118.702 115.178 118.948 115.85 118.948C116.438 118.948 116.924 118.798 117.308 118.498C117.692 118.186 117.938 117.766 118.046 117.238H120.728C120.512 118.438 119.972 119.386 119.108 120.082C118.256 120.778 117.188 121.126 115.904 121.126C114.932 121.126 114.068 120.922 113.312 120.514C112.556 120.094 111.968 119.5 111.548 118.732C111.128 117.964 110.918 117.058 110.918 116.014C110.918 114.97 111.128 114.064 111.548 113.296C111.968 112.516 112.556 111.922 113.312 111.514C114.068 111.106 114.932 110.902 115.904 110.902ZM124.124 112.936C124.496 112.3 124.988 111.802 125.6 111.442C126.212 111.07 126.896 110.884 127.652 110.884V113.602H126.914C125.054 113.602 124.124 114.466 124.124 116.194V121H121.586V111.028H124.124V112.936ZM127.824 108.166C127.824 107.758 127.968 107.428 128.256 107.176C128.544 106.912 128.922 106.78 129.39 106.78C129.858 106.78 130.236 106.912 130.524 107.176C130.812 107.428 130.956 107.758 130.956 108.166C130.956 108.562 130.812 108.892 130.524 109.156C130.236 109.408 129.858 109.534 129.39 109.534C128.922 109.534 128.544 109.408 128.256 109.156C127.968 108.892 127.824 108.562 127.824 108.166ZM130.65 111.028V121H128.112V111.028H130.65ZM137.959 110.902C138.799 110.902 139.555 111.106 140.227 111.514C140.899 111.922 141.421 112.516 141.793 113.296C142.177 114.064 142.369 114.97 142.369 116.014C142.369 117.058 142.177 117.97 141.793 118.75C141.421 119.518 140.899 120.106 140.227 120.514C139.555 120.922 138.799 121.126 137.959 121.126C137.119 121.126 136.399 120.928 135.799 120.532C135.211 120.124 134.791 119.584 134.539 118.912V125.752H132.001V111.028H134.539V113.098C134.791 112.426 135.211 111.892 135.799 111.496C136.399 111.1 137.119 110.902 137.959 110.902ZM137.167 113.116C136.399 113.116 135.763 113.38 135.259 113.908C134.767 114.424 134.521 115.126 134.521 116.014C134.521 116.89 134.767 117.592 135.259 118.12C135.763 118.636 136.399 118.894 137.167 118.894C137.959 118.894 138.595 118.642 139.075 118.138C139.555 117.622 139.795 116.914 139.795 116.014C139.795 115.114 139.555 114.406 139.075 113.89C138.595 113.374 137.959 113.116 137.167 113.116ZM148.548 118.822V121H147.216C146.1 121 145.242 120.73 144.642 120.19C144.054 119.65 143.76 118.75 143.76 117.49V113.17H142.374V111.028H143.76V108.562H146.298V111.028H148.53V113.17H146.298V117.526C146.298 118.006 146.394 118.342 146.586 118.534C146.778 118.726 147.102 118.822 147.558 118.822H148.548ZM151.828 113.764C151.828 111.472 152.272 109.414 153.16 107.59C154.048 105.766 155.218 104.29 156.67 103.162H159.136V103.414C155.896 106.09 154.276 109.54 154.276 113.764C154.276 117.988 155.896 121.438 159.136 124.114V124.348H156.67C155.218 123.22 154.048 121.75 153.16 119.938C152.272 118.114 151.828 116.056 151.828 113.764ZM161.204 110.308V113.602H165.704V115.546H161.204V118.966H166.244V121H158.666V108.292H166.244V110.308H161.204ZM175.908 117.526C175.908 118.174 175.746 118.774 175.422 119.326C175.098 119.866 174.618 120.304 173.982 120.64C173.346 120.964 172.572 121.126 171.66 121.126C170.76 121.126 169.956 120.976 169.248 120.676C168.54 120.364 167.97 119.92 167.538 119.344C167.118 118.768 166.878 118.096 166.818 117.328H169.518C169.578 117.844 169.782 118.276 170.13 118.624C170.49 118.96 170.964 119.128 171.552 119.128C172.08 119.128 172.482 118.99 172.758 118.714C173.046 118.426 173.19 118.06 173.19 117.616C173.19 117.22 173.076 116.896 172.848 116.644C172.62 116.38 172.332 116.17 171.984 116.014C171.636 115.858 171.156 115.678 170.544 115.474C169.752 115.21 169.104 114.952 168.6 114.7C168.096 114.436 167.664 114.058 167.304 113.566C166.956 113.074 166.782 112.432 166.782 111.64C166.782 110.548 167.172 109.69 167.952 109.066C168.744 108.43 169.788 108.112 171.084 108.112C172.428 108.112 173.496 108.436 174.288 109.084C175.092 109.732 175.548 110.596 175.656 111.676H172.92C172.848 111.22 172.656 110.848 172.344 110.56C172.032 110.26 171.606 110.11 171.066 110.11C170.598 110.11 170.22 110.236 169.932 110.488C169.644 110.728 169.5 111.082 169.5 111.55C169.5 111.922 169.608 112.234 169.824 112.486C170.052 112.726 170.334 112.924 170.67 113.08C171.018 113.236 171.486 113.41 172.074 113.602C172.89 113.89 173.55 114.16 174.054 114.412C174.57 114.664 175.008 115.042 175.368 115.546C175.728 116.05 175.908 116.71 175.908 117.526ZM185.617 110.272H179.587V113.476C179.863 113.152 180.241 112.894 180.721 112.702C181.213 112.498 181.753 112.396 182.341 112.396C183.217 112.396 183.943 112.588 184.519 112.972C185.107 113.344 185.539 113.848 185.815 114.484C186.103 115.108 186.247 115.804 186.247 116.572C186.247 117.928 185.863 119.014 185.095 119.83C184.339 120.646 183.253 121.054 181.837 121.054C180.913 121.054 180.109 120.892 179.425 120.568C178.741 120.232 178.207 119.77 177.823 119.182C177.439 118.582 177.229 117.886 177.193 117.094H179.659C179.755 117.634 179.977 118.066 180.325 118.39C180.673 118.702 181.135 118.858 181.711 118.858C182.407 118.858 182.923 118.648 183.259 118.228C183.607 117.796 183.781 117.226 183.781 116.518C183.781 115.846 183.601 115.324 183.241 114.952C182.881 114.58 182.371 114.394 181.711 114.394C181.231 114.394 180.823 114.502 180.487 114.718C180.151 114.922 179.905 115.198 179.749 115.546H177.283V108.04H185.617V110.272ZM193.272 103.954L188.394 124.258H185.946L190.824 103.954H193.272ZM195.762 110.308V113.602H200.262V115.546H195.762V118.966H200.802V121H193.224V108.292H200.802V110.308H195.762ZM210.466 117.526C210.466 118.174 210.304 118.774 209.98 119.326C209.656 119.866 209.176 120.304 208.54 120.64C207.904 120.964 207.13 121.126 206.218 121.126C205.318 121.126 204.514 120.976 203.806 120.676C203.098 120.364 202.528 119.92 202.096 119.344C201.676 118.768 201.436 118.096 201.376 117.328H204.076C204.136 117.844 204.34 118.276 204.688 118.624C205.048 118.96 205.522 119.128 206.11 119.128C206.638 119.128 207.04 118.99 207.316 118.714C207.604 118.426 207.748 118.06 207.748 117.616C207.748 117.22 207.634 116.896 207.406 116.644C207.178 116.38 206.89 116.17 206.542 116.014C206.194 115.858 205.714 115.678 205.102 115.474C204.31 115.21 203.662 114.952 203.158 114.7C202.654 114.436 202.222 114.058 201.862 113.566C201.514 113.074 201.34 112.432 201.34 111.64C201.34 110.548 201.73 109.69 202.51 109.066C203.302 108.43 204.346 108.112 205.642 108.112C206.986 108.112 208.054 108.436 208.846 109.084C209.65 109.732 210.106 110.596 210.214 111.676H207.478C207.406 111.22 207.214 110.848 206.902 110.56C206.59 110.26 206.164 110.11 205.624 110.11C205.156 110.11 204.778 110.236 204.49 110.488C204.202 110.728 204.058 111.082 204.058 111.55C204.058 111.922 204.166 112.234 204.382 112.486C204.61 112.726 204.892 112.924 205.228 113.08C205.576 113.236 206.044 113.41 206.632 113.602C207.448 113.89 208.108 114.16 208.612 114.412C209.128 114.664 209.566 115.042 209.926 115.546C210.286 116.05 210.466 116.71 210.466 117.526ZM217.817 111.748C217.625 110.5 216.989 109.876 215.909 109.876C215.069 109.876 214.457 110.248 214.073 110.992C213.689 111.724 213.521 112.876 213.569 114.448C213.761 113.872 214.133 113.416 214.685 113.08C215.249 112.732 215.903 112.558 216.647 112.558C217.871 112.558 218.831 112.93 219.527 113.674C220.235 114.406 220.589 115.45 220.589 116.806C220.589 117.646 220.421 118.39 220.085 119.038C219.749 119.686 219.245 120.196 218.573 120.568C217.913 120.94 217.109 121.126 216.161 121.126C214.313 121.126 213.041 120.556 212.345 119.416C211.649 118.264 211.301 116.68 211.301 114.664C211.301 112.348 211.673 110.632 212.417 109.516C213.173 108.4 214.391 107.842 216.071 107.842C217.355 107.842 218.339 108.208 219.023 108.94C219.707 109.672 220.097 110.608 220.193 111.748H217.817ZM213.785 116.626C213.785 117.298 213.977 117.856 214.361 118.3C214.757 118.732 215.333 118.948 216.089 118.948C216.737 118.948 217.253 118.756 217.637 118.372C218.021 117.988 218.213 117.454 218.213 116.77C218.213 116.05 218.015 115.498 217.619 115.114C217.235 114.73 216.713 114.538 216.053 114.538C215.429 114.538 214.895 114.718 214.451 115.078C214.007 115.438 213.785 115.954 213.785 116.626ZM227.204 113.746C227.204 116.05 226.76 118.114 225.872 119.938C224.984 121.762 223.814 123.232 222.362 124.348H219.896V124.114C223.136 121.438 224.756 117.988 224.756 113.764C224.756 109.54 223.136 106.09 219.896 103.414V103.162H222.362C223.814 104.29 224.984 105.766 225.872 107.59C226.76 109.402 227.204 111.454 227.204 113.746ZM51.296 142.006C51.296 141.538 51.404 141.112 51.62 140.728C51.848 140.332 52.154 140.026 52.538 139.81C52.934 139.582 53.36 139.468 53.816 139.468C54.284 139.468 54.71 139.582 55.094 139.81C55.478 140.026 55.778 140.332 55.994 140.728C56.222 141.112 56.336 141.538 56.336 142.006C56.336 142.462 56.222 142.882 55.994 143.266C55.778 143.65 55.478 143.956 55.094 144.184C54.71 144.4 54.284 144.508 53.816 144.508C53.36 144.508 52.934 144.4 52.538 144.184C52.154 143.956 51.848 143.65 51.62 143.266C51.404 142.882 51.296 142.462 51.296 142.006ZM67.4348 148L64.4648 143.05H63.3488V148H60.8108V135.292H65.6528C67.1288 135.292 68.2508 135.652 69.0188 136.372C69.7988 137.092 70.1888 138.04 70.1888 139.216C70.1888 140.176 69.9188 140.98 69.3788 141.628C68.8508 142.276 68.0828 142.708 67.0748 142.924L70.2428 148H67.4348ZM63.3488 141.304H65.4368C66.8888 141.304 67.6148 140.662 67.6148 139.378C67.6148 138.766 67.4348 138.292 67.0748 137.956C66.7268 137.608 66.1808 137.434 65.4368 137.434H63.3488V141.304ZM80.4976 138.028V148H77.9596V145.984C77.6956 146.656 77.2576 147.184 76.6456 147.568C76.0456 147.94 75.3496 148.126 74.5576 148.126C73.4056 148.126 72.4876 147.748 71.8036 146.992C71.1196 146.236 70.7776 145.18 70.7776 143.824V138.028H73.2976V143.536C73.2976 144.328 73.5016 144.946 73.9096 145.39C74.3176 145.822 74.8696 146.038 75.5656 146.038C76.2976 146.038 76.8796 145.804 77.3116 145.336C77.7436 144.868 77.9596 144.196 77.9596 143.32V138.028H80.4976ZM87.8183 137.902C88.6583 137.902 89.4143 138.106 90.0863 138.514C90.7583 138.922 91.2803 139.516 91.6523 140.296C92.0363 141.064 92.2283 141.97 92.2283 143.014C92.2283 144.058 92.0363 144.97 91.6523 145.75C91.2803 146.518 90.7583 147.106 90.0863 147.514C89.4143 147.922 88.6583 148.126 87.8183 148.126C86.9783 148.126 86.2583 147.928 85.6583 147.532C85.0703 147.124 84.6503 146.584 84.3983 145.912V148H81.8603V134.68H84.3983V140.098C84.6503 139.426 85.0703 138.892 85.6583 138.496C86.2583 138.1 86.9783 137.902 87.8183 137.902ZM87.0263 140.116C86.2583 140.116 85.6223 140.38 85.1183 140.908C84.6263 141.424 84.3803 142.126 84.3803 143.014C84.3803 143.89 84.6263 144.592 85.1183 145.12C85.6223 145.636 86.2583 145.894 87.0263 145.894C87.8183 145.894 88.4543 145.642 88.9343 145.138C89.4143 144.622 89.6543 143.914 89.6543 143.014C89.6543 142.114 89.4143 141.406 88.9343 140.89C88.4543 140.374 87.8183 140.116 87.0263 140.116ZM94.7893 138.028L97.5073 144.796L100.027 138.028H102.817L96.7153 152.752H93.9073L96.1573 147.712L91.9633 138.028H94.7893ZM51.296 169.006C51.296 168.538 51.404 168.112 51.62 167.728C51.848 167.332 52.154 167.026 52.538 166.81C52.934 166.582 53.36 166.468 53.816 166.468C54.284 166.468 54.71 166.582 55.094 166.81C55.478 167.026 55.778 167.332 55.994 167.728C56.222 168.112 56.336 168.538 56.336 169.006C56.336 169.462 56.222 169.882 55.994 170.266C55.778 170.65 55.478 170.956 55.094 171.184C54.71 171.4 54.284 171.508 53.816 171.508C53.36 171.508 52.934 171.4 52.538 171.184C52.154 170.956 51.848 170.65 51.62 170.266C51.404 169.882 51.296 169.462 51.296 169.006ZM71.3408 162.292V175H68.7848V169.474H63.3488V175H60.8108V162.292H63.3488V167.44H68.7848V162.292H71.3408ZM81.3379 162.292V164.308H77.8279V175H75.2899V164.308H71.7979V162.292H81.3379ZM95.488 162.436V175H92.968V166.234L89.746 175H87.55L84.328 166.27V175H81.79V162.436H84.868L88.684 171.886L92.428 162.436H95.488ZM99.3791 173.056H103.645V175H96.8411V162.292H99.3791V173.056ZM51.296 196.006C51.296 195.538 51.404 195.112 51.62 194.728C51.848 194.332 52.154 194.026 52.538 193.81C52.934 193.582 53.36 193.468 53.816 193.468C54.284 193.468 54.71 193.582 55.094 193.81C55.478 194.026 55.778 194.332 55.994 194.728C56.222 195.112 56.336 195.538 56.336 196.006C56.336 196.462 56.222 196.882 55.994 197.266C55.778 197.65 55.478 197.956 55.094 198.184C54.71 198.4 54.284 198.508 53.816 198.508C53.36 198.508 52.934 198.4 52.538 198.184C52.154 197.956 51.848 197.65 51.62 197.266C51.404 196.882 51.296 196.462 51.296 196.006ZM66.5528 189.166C68.1368 189.166 69.4508 189.574 70.4948 190.39C71.5388 191.206 72.2288 192.316 72.5648 193.72H69.9008C69.6248 193.036 69.1928 192.496 68.6048 192.1C68.0288 191.704 67.3328 191.506 66.5168 191.506C65.8448 191.506 65.2388 191.674 64.6988 192.01C64.1588 192.346 63.7388 192.826 63.4388 193.45C63.1388 194.074 62.9888 194.806 62.9888 195.646C62.9888 196.474 63.1388 197.2 63.4388 197.824C63.7388 198.448 64.1588 198.928 64.6988 199.264C65.2388 199.6 65.8448 199.768 66.5168 199.768C67.3328 199.768 68.0288 199.57 68.6048 199.174C69.1928 198.778 69.6248 198.238 69.9008 197.554H72.5648C72.2288 198.958 71.5388 200.068 70.4948 200.884C69.4508 201.7 68.1368 202.108 66.5528 202.108C65.3408 202.108 64.2668 201.838 63.3308 201.298C62.4068 200.746 61.6868 199.978 61.1708 198.994C60.6668 198.01 60.4148 196.894 60.4148 195.646C60.4148 194.386 60.6668 193.264 61.1708 192.28C61.6868 191.296 62.4068 190.534 63.3308 189.994C64.2548 189.442 65.3288 189.166 66.5528 189.166ZM82.254 198.526C82.254 199.174 82.092 199.774 81.768 200.326C81.444 200.866 80.964 201.304 80.328 201.64C79.692 201.964 78.918 202.126 78.006 202.126C77.106 202.126 76.302 201.976 75.594 201.676C74.886 201.364 74.316 200.92 73.884 200.344C73.464 199.768 73.224 199.096 73.164 198.328H75.864C75.924 198.844 76.128 199.276 76.476 199.624C76.836 199.96 77.31 200.128 77.898 200.128C78.426 200.128 78.828 199.99 79.104 199.714C79.392 199.426 79.536 199.06 79.536 198.616C79.536 198.22 79.422 197.896 79.194 197.644C78.966 197.38 78.678 197.17 78.33 197.014C77.982 196.858 77.502 196.678 76.89 196.474C76.098 196.21 75.45 195.952 74.946 195.7C74.442 195.436 74.01 195.058 73.65 194.566C73.302 194.074 73.128 193.432 73.128 192.64C73.128 191.548 73.518 190.69 74.298 190.066C75.09 189.43 76.134 189.112 77.43 189.112C78.774 189.112 79.842 189.436 80.634 190.084C81.438 190.732 81.894 191.596 82.002 192.676H79.266C79.194 192.22 79.002 191.848 78.69 191.56C78.378 191.26 77.952 191.11 77.412 191.11C76.944 191.11 76.566 191.236 76.278 191.488C75.99 191.728 75.846 192.082 75.846 192.55C75.846 192.922 75.954 193.234 76.17 193.486C76.398 193.726 76.68 193.924 77.016 194.08C77.364 194.236 77.832 194.41 78.42 194.602C79.236 194.89 79.896 195.16 80.4 195.412C80.916 195.664 81.354 196.042 81.714 196.546C82.074 197.05 82.254 197.71 82.254 198.526ZM91.9086 198.526C91.9086 199.174 91.7466 199.774 91.4226 200.326C91.0986 200.866 90.6186 201.304 89.9826 201.64C89.3466 201.964 88.5726 202.126 87.6606 202.126C86.7606 202.126 85.9566 201.976 85.2486 201.676C84.5406 201.364 83.9706 200.92 83.5386 200.344C83.1186 199.768 82.8786 199.096 82.8186 198.328H85.5186C85.5786 198.844 85.7826 199.276 86.1306 199.624C86.4906 199.96 86.9646 200.128 87.5526 200.128C88.0806 200.128 88.4826 199.99 88.7586 199.714C89.0466 199.426 89.1906 199.06 89.1906 198.616C89.1906 198.22 89.0766 197.896 88.8486 197.644C88.6206 197.38 88.3326 197.17 87.9846 197.014C87.6366 196.858 87.1566 196.678 86.5446 196.474C85.7526 196.21 85.1046 195.952 84.6006 195.7C84.0966 195.436 83.6646 195.058 83.3046 194.566C82.9566 194.074 82.7826 193.432 82.7826 192.64C82.7826 191.548 83.1726 190.69 83.9526 190.066C84.7446 189.43 85.7886 189.112 87.0846 189.112C88.4286 189.112 89.4966 189.436 90.2886 190.084C91.0926 190.732 91.5486 191.596 91.6566 192.676H88.9206C88.8486 192.22 88.6566 191.848 88.3446 191.56C88.0326 191.26 87.6066 191.11 87.0666 191.11C86.5986 191.11 86.2206 191.236 85.9326 191.488C85.6446 191.728 85.5006 192.082 85.5006 192.55C85.5006 192.922 85.6086 193.234 85.8246 193.486C86.0526 193.726 86.3346 193.924 86.6706 194.08C87.0186 194.236 87.4866 194.41 88.0746 194.602C88.8906 194.89 89.5506 195.16 90.0546 195.412C90.5706 195.664 91.0086 196.042 91.3686 196.546C91.7286 197.05 91.9086 197.71 91.9086 198.526Z" fill="white"/>
<path d="M266.349 226.422L261.143 250.268H280.228C280.877 250.268 281.403 250.794 281.403 251.443V257.914C281.403 258.563 280.877 259.089 280.228 259.089H259.174L252.903 288.073C252.786 288.614 252.307 289 251.754 289H244.732C243.983 289 243.425 288.309 243.584 287.577L249.748 259.089H218.374L212.103 288.073C211.986 288.614 211.507 289 210.954 289H204.073C203.324 289 202.766 288.309 202.925 287.577L209.088 259.089H188.175C187.526 259.089 187 258.563 187 257.914V251.443C187 250.794 187.526 250.268 188.175 250.268H211.058L216.263 226.422H195.772C195.123 226.422 194.597 225.896 194.597 225.247V218.775C194.597 218.126 195.123 217.6 195.772 217.6H218.233L224.645 187.927C224.762 187.386 225.24 187 225.794 187H232.675C233.424 187 233.982 187.691 233.823 188.423L227.519 217.6H258.892L265.305 187.927C265.421 187.386 265.9 187 266.453 187H273.475C274.224 187 274.782 187.691 274.624 188.423L268.319 217.6H287.825C288.474 217.6 289 218.126 289 218.775V225.247C289 225.896 288.474 226.422 287.825 226.422H266.349ZM256.923 226.422H225.549L220.343 250.268H251.717L256.923 226.422Z" fill="#547DA7"/>
</g>
</svg>
