<svg width="289" height="289" viewBox="0 0 289 289" fill="none" xmlns="http://www.w3.org/2000/svg">
<rect width="289" height="289" fill="#E2505C"/>
<mask id="mask0_67_1124" style="mask-type:alpha" maskUnits="userSpaceOnUse" x="193" y="193" width="96" height="96">
<path d="M193 193H289V289H193V193Z" fill="#C4C4C4"/>
</mask>
<g mask="url(#mask0_67_1124)">
<g opacity="0.5">
<rect x="197.625" y="196.94" width="102.221" height="102.221" transform="rotate(0.534808 197.625 196.94)" stroke="white" stroke-width="6" stroke-linejoin="round"/>
<rect x="248.733" y="197.418" width="72.2814" height="72.2814" transform="rotate(45.5348 248.733 197.418)" stroke="white" stroke-width="6" stroke-linejoin="bevel"/>
</g>
</g>
<path d="M60.7 57.84V60.98H55.02V63.5H59.26V66.46H55.02V72H51.08V57.84H60.7ZM66.2505 62.88C66.6905 62.2133 67.2438 61.68 67.9105 61.28C68.5771 60.88 69.2838 60.68 70.0305 60.68V64.88H68.8905C68.0105 64.88 67.3505 65.0533 66.9105 65.4C66.4705 65.7333 66.2505 66.32 66.2505 67.16V72H62.3105V60.78H66.2505V62.88ZM75.4939 60.64C76.2806 60.64 76.9606 60.8133 77.5339 61.16C78.1206 61.4933 78.5539 61.96 78.8339 62.56V60.78H82.7539V72H78.8339V70.22C78.5539 70.82 78.1206 71.2933 77.5339 71.64C76.9606 71.9733 76.2806 72.14 75.4939 72.14C74.6006 72.14 73.7939 71.9133 73.0739 71.46C72.3539 70.9933 71.7872 70.3267 71.3739 69.46C70.9606 68.58 70.7539 67.5533 70.7539 66.38C70.7539 65.2067 70.9606 64.1867 71.3739 63.32C71.7872 62.4533 72.3539 61.7933 73.0739 61.34C73.7939 60.8733 74.6006 60.64 75.4939 60.64ZM76.7939 64.08C76.1806 64.08 75.6806 64.2867 75.2939 64.7C74.9206 65.1 74.7339 65.66 74.7339 66.38C74.7339 67.1133 74.9206 67.6867 75.2939 68.1C75.6806 68.5 76.1806 68.7 76.7939 68.7C77.3806 68.7 77.8672 68.4933 78.2539 68.08C78.6406 67.6667 78.8339 67.1 78.8339 66.38C78.8339 65.6733 78.6406 65.1133 78.2539 64.7C77.8672 64.2867 77.3806 64.08 76.7939 64.08ZM99.6681 60.68C101.081 60.68 102.181 61.1067 102.968 61.96C103.768 62.8133 104.168 63.9867 104.168 65.48V72H100.248V65.98C100.248 65.38 100.081 64.9133 99.7481 64.58C99.4148 64.2467 98.9681 64.08 98.4081 64.08C97.8215 64.08 97.3548 64.2533 97.0081 64.6C96.6748 64.9333 96.5081 65.4133 96.5081 66.04V72H92.5881V65.98C92.5881 65.38 92.4215 64.9133 92.0881 64.58C91.7548 64.2467 91.3081 64.08 90.7481 64.08C90.1615 64.08 89.6948 64.2533 89.3481 64.6C89.0148 64.9333 88.8481 65.4133 88.8481 66.04V72H84.9081V60.78H88.8481V62.5C89.1681 61.94 89.6148 61.5 90.1881 61.18C90.7615 60.8467 91.4348 60.68 92.2081 60.68C93.0481 60.68 93.7881 60.8667 94.4281 61.24C95.0681 61.6133 95.5681 62.1467 95.9281 62.84C96.3148 62.1867 96.8348 61.6667 97.4881 61.28C98.1415 60.88 98.8681 60.68 99.6681 60.68ZM117.036 66.18C117.036 66.46 117.002 66.7667 116.936 67.1H109.516C109.582 68.3667 110.136 69 111.176 69C111.562 69 111.882 68.9067 112.136 68.72C112.389 68.5333 112.562 68.2867 112.656 67.98H116.816C116.669 68.7667 116.342 69.48 115.836 70.12C115.329 70.7467 114.689 71.24 113.916 71.6C113.142 71.96 112.296 72.14 111.376 72.14C110.256 72.14 109.262 71.9133 108.396 71.46C107.542 70.9933 106.876 70.3267 106.396 69.46C105.916 68.58 105.676 67.5533 105.676 66.38C105.676 65.2067 105.916 64.1867 106.396 63.32C106.876 62.4533 107.549 61.7933 108.416 61.34C109.282 60.8733 110.269 60.64 111.376 60.64C112.496 60.64 113.482 60.8667 114.336 61.32C115.189 61.7733 115.849 62.42 116.316 63.26C116.796 64.1 117.036 65.0733 117.036 66.18ZM113.036 65.46C113.049 64.8867 112.896 64.4533 112.576 64.16C112.256 63.8667 111.856 63.72 111.376 63.72C110.856 63.72 110.429 63.8667 110.096 64.16C109.776 64.4533 109.589 64.8867 109.536 65.46H113.036ZM135.359 60.78L132.579 72H128.179L126.479 65.02L124.739 72H120.319L117.579 60.78H121.479L122.699 68.28L124.459 60.78H128.639L130.479 68.34L131.719 60.78H135.359ZM141.732 60.64C142.852 60.64 143.852 60.8733 144.732 61.34C145.625 61.7933 146.325 62.46 146.832 63.34C147.338 64.2067 147.592 65.22 147.592 66.38C147.592 67.5533 147.338 68.5733 146.832 69.44C146.325 70.3067 145.625 70.9733 144.732 71.44C143.852 71.9067 142.852 72.14 141.732 72.14C140.612 72.14 139.605 71.9067 138.712 71.44C137.818 70.9733 137.118 70.3067 136.612 69.44C136.105 68.5733 135.852 67.5533 135.852 66.38C135.852 65.2067 136.105 64.1867 136.612 63.32C137.118 62.4533 137.818 61.7933 138.712 61.34C139.605 60.8733 140.612 60.64 141.732 60.64ZM141.732 64.04C141.185 64.04 140.732 64.24 140.372 64.64C140.012 65.04 139.832 65.62 139.832 66.38C139.832 67.1533 140.012 67.74 140.372 68.14C140.732 68.54 141.185 68.74 141.732 68.74C142.265 68.74 142.712 68.54 143.072 68.14C143.432 67.7267 143.612 67.14 143.612 66.38C143.612 65.62 143.432 65.04 143.072 64.64C142.712 64.24 142.265 64.04 141.732 64.04ZM153.106 62.88C153.546 62.2133 154.099 61.68 154.766 61.28C155.433 60.88 156.139 60.68 156.886 60.68V64.88H155.746C154.866 64.88 154.206 65.0533 153.766 65.4C153.326 65.7333 153.106 66.32 153.106 67.16V72H149.166V60.78H153.106V62.88ZM165.189 72L162.129 67.36V72H158.189V57.2H162.129V65.14L165.209 60.78H169.789L165.429 66.4L169.909 72H165.189ZM175.262 60.64C176.742 60.64 177.922 61 178.802 61.72C179.682 62.44 180.235 63.3933 180.462 64.58H176.782C176.689 64.18 176.495 63.88 176.202 63.68C175.922 63.48 175.575 63.38 175.162 63.38C174.869 63.38 174.642 63.4467 174.482 63.58C174.335 63.7 174.262 63.8733 174.262 64.1C174.262 64.38 174.422 64.5933 174.742 64.74C175.075 64.8733 175.615 65.0267 176.362 65.2C177.229 65.3867 177.942 65.5867 178.502 65.8C179.075 66.0133 179.569 66.36 179.982 66.84C180.409 67.32 180.622 67.9667 180.622 68.78C180.622 69.4333 180.442 70.0133 180.082 70.52C179.722 71.0267 179.195 71.4267 178.502 71.72C177.822 72 177.015 72.14 176.082 72.14C174.509 72.14 173.255 71.8 172.322 71.12C171.389 70.44 170.822 69.4667 170.622 68.2H174.402C174.455 68.6133 174.629 68.92 174.922 69.12C175.229 69.32 175.609 69.42 176.062 69.42C176.369 69.42 176.602 69.3533 176.762 69.22C176.922 69.0867 177.002 68.9133 177.002 68.7C177.002 68.38 176.829 68.1467 176.482 68C176.149 67.8533 175.609 67.7067 174.862 67.56C174.009 67.3867 173.309 67.2 172.762 67C172.215 66.7867 171.735 66.4533 171.322 66C170.922 65.5333 170.722 64.8933 170.722 64.08C170.722 63.0667 171.115 62.24 171.902 61.6C172.689 60.96 173.809 60.64 175.262 60.64Z" fill="white"/>
<path d="M51.296 115.006C51.296 114.538 51.404 114.112 51.62 113.728C51.848 113.332 52.154 113.026 52.538 112.81C52.934 112.582 53.36 112.468 53.816 112.468C54.284 112.468 54.71 112.582 55.094 112.81C55.478 113.026 55.778 113.332 55.994 113.728C56.222 114.112 56.336 114.538 56.336 115.006C56.336 115.462 56.222 115.882 55.994 116.266C55.778 116.65 55.478 116.956 55.094 117.184C54.71 117.4 54.284 117.508 53.816 117.508C53.36 117.508 52.934 117.4 52.538 117.184C52.154 116.956 51.848 116.65 51.62 116.266C51.404 115.882 51.296 115.462 51.296 115.006ZM67.9028 114.448C68.6708 114.604 69.2828 114.97 69.7388 115.546C70.2068 116.11 70.4408 116.776 70.4408 117.544C70.4408 118.612 70.0808 119.458 69.3608 120.082C68.6528 120.694 67.6208 121 66.2648 121H60.8108V108.292H66.1568C67.4408 108.292 68.4248 108.574 69.1088 109.138C69.8048 109.702 70.1528 110.494 70.1528 111.514C70.1528 112.306 69.9428 112.954 69.5228 113.458C69.1148 113.962 68.5748 114.292 67.9028 114.448ZM63.3488 113.62H65.6348C66.2708 113.62 66.7508 113.482 67.0748 113.206C67.4108 112.918 67.5788 112.51 67.5788 111.982C67.5788 111.454 67.4168 111.046 67.0928 110.758C66.7688 110.47 66.2708 110.326 65.5988 110.326H63.3488V113.62ZM65.7608 118.93C66.4328 118.93 66.9488 118.786 67.3088 118.498C67.6688 118.198 67.8488 117.766 67.8488 117.202C67.8488 116.638 67.6628 116.206 67.2908 115.906C66.9308 115.594 66.4148 115.438 65.7428 115.438H63.3488V118.93H65.7608ZM75.882 110.902C76.854 110.902 77.724 111.106 78.492 111.514C79.272 111.922 79.884 112.516 80.328 113.296C80.772 114.064 80.994 114.97 80.994 116.014C80.994 117.058 80.772 117.964 80.328 118.732C79.884 119.5 79.272 120.094 78.492 120.514C77.724 120.922 76.854 121.126 75.882 121.126C74.91 121.126 74.034 120.922 73.254 120.514C72.486 120.094 71.88 119.5 71.436 118.732C70.992 117.964 70.77 117.058 70.77 116.014C70.77 114.97 70.992 114.064 71.436 113.296C71.88 112.516 72.486 111.922 73.254 111.514C74.034 111.106 74.91 110.902 75.882 110.902ZM75.882 113.098C75.174 113.098 74.574 113.35 74.082 113.854C73.59 114.346 73.344 115.066 73.344 116.014C73.344 116.962 73.59 117.688 74.082 118.192C74.574 118.684 75.174 118.93 75.882 118.93C76.59 118.93 77.19 118.684 77.682 118.192C78.174 117.688 78.42 116.962 78.42 116.014C78.42 115.066 78.174 114.346 77.682 113.854C77.19 113.35 76.59 113.098 75.882 113.098ZM86.4507 110.902C87.4227 110.902 88.2927 111.106 89.0607 111.514C89.8407 111.922 90.4527 112.516 90.8967 113.296C91.3407 114.064 91.5627 114.97 91.5627 116.014C91.5627 117.058 91.3407 117.964 90.8967 118.732C90.4527 119.5 89.8407 120.094 89.0607 120.514C88.2927 120.922 87.4227 121.126 86.4507 121.126C85.4787 121.126 84.6027 120.922 83.8227 120.514C83.0547 120.094 82.4487 119.5 82.0047 118.732C81.5607 117.964 81.3387 117.058 81.3387 116.014C81.3387 114.97 81.5607 114.064 82.0047 113.296C82.4487 112.516 83.0547 111.922 83.8227 111.514C84.6027 111.106 85.4787 110.902 86.4507 110.902ZM86.4507 113.098C85.7427 113.098 85.1427 113.35 84.6507 113.854C84.1587 114.346 83.9127 115.066 83.9127 116.014C83.9127 116.962 84.1587 117.688 84.6507 118.192C85.1427 118.684 85.7427 118.93 86.4507 118.93C87.1587 118.93 87.7587 118.684 88.2507 118.192C88.7427 117.688 88.9887 116.962 88.9887 116.014C88.9887 115.066 88.7427 114.346 88.2507 113.854C87.7587 113.35 87.1587 113.098 86.4507 113.098ZM97.7394 118.822V121H96.4074C95.2914 121 94.4334 120.73 93.8334 120.19C93.2454 119.65 92.9514 118.75 92.9514 117.49V113.17H91.5654V111.028H92.9514V108.562H95.4894V111.028H97.7214V113.17H95.4894V117.526C95.4894 118.006 95.5854 118.342 95.7774 118.534C95.9694 118.726 96.2934 118.822 96.7494 118.822H97.7394ZM102.059 110.902C103.271 110.902 104.243 111.208 104.975 111.82C105.707 112.432 106.163 113.248 106.343 114.268H103.967C103.871 113.788 103.655 113.404 103.319 113.116C102.983 112.828 102.545 112.684 102.005 112.684C101.573 112.684 101.237 112.786 100.997 112.99C100.757 113.194 100.637 113.47 100.637 113.818C100.637 114.094 100.733 114.316 100.925 114.484C101.117 114.652 101.357 114.784 101.645 114.88C101.933 114.976 102.347 115.09 102.887 115.222C103.643 115.39 104.255 115.57 104.723 115.762C105.203 115.942 105.611 116.236 105.947 116.644C106.295 117.04 106.469 117.58 106.469 118.264C106.469 119.116 106.133 119.806 105.461 120.334C104.801 120.862 103.907 121.126 102.779 121.126C101.483 121.126 100.445 120.838 99.6647 120.262C98.8847 119.674 98.4107 118.84 98.2427 117.76H100.673C100.733 118.252 100.949 118.642 101.321 118.93C101.693 119.206 102.179 119.344 102.779 119.344C103.211 119.344 103.541 119.242 103.769 119.038C103.997 118.822 104.111 118.546 104.111 118.21C104.111 117.922 104.009 117.688 103.805 117.508C103.613 117.328 103.367 117.19 103.067 117.094C102.779 116.998 102.365 116.884 101.825 116.752C101.081 116.584 100.475 116.416 100.007 116.248C99.5507 116.068 99.1547 115.786 98.8187 115.402C98.4947 115.018 98.3327 114.49 98.3327 113.818C98.3327 112.954 98.6627 112.252 99.3227 111.712C99.9827 111.172 100.895 110.902 102.059 110.902ZM112.742 118.822V121H111.41C110.294 121 109.436 120.73 108.836 120.19C108.248 119.65 107.954 118.75 107.954 117.49V113.17H106.568V111.028H107.954V108.562H110.492V111.028H112.724V113.17H110.492V117.526C110.492 118.006 110.588 118.342 110.78 118.534C110.972 118.726 111.296 118.822 111.752 118.822H112.742ZM116.161 112.936C116.533 112.3 117.025 111.802 117.637 111.442C118.249 111.07 118.933 110.884 119.689 110.884V113.602H118.951C117.091 113.602 116.161 114.466 116.161 116.194V121H113.623V111.028H116.161V112.936ZM124.055 110.902C124.895 110.902 125.615 111.1 126.215 111.496C126.815 111.892 127.241 112.426 127.493 113.098V111.028H130.013V121H127.493V118.912C127.241 119.584 126.815 120.124 126.215 120.532C125.615 120.928 124.895 121.126 124.055 121.126C123.215 121.126 122.459 120.922 121.787 120.514C121.115 120.106 120.587 119.518 120.203 118.75C119.831 117.97 119.645 117.058 119.645 116.014C119.645 114.97 119.831 114.064 120.203 113.296C120.587 112.516 121.115 111.922 121.787 111.514C122.459 111.106 123.215 110.902 124.055 110.902ZM124.847 113.116C124.055 113.116 123.419 113.374 122.939 113.89C122.459 114.406 122.219 115.114 122.219 116.014C122.219 116.914 122.459 117.622 122.939 118.138C123.419 118.642 124.055 118.894 124.847 118.894C125.615 118.894 126.245 118.636 126.737 118.12C127.241 117.592 127.493 116.89 127.493 116.014C127.493 115.126 127.241 114.424 126.737 113.908C126.245 113.38 125.615 113.116 124.847 113.116ZM137.326 110.902C138.166 110.902 138.922 111.106 139.594 111.514C140.266 111.922 140.788 112.516 141.16 113.296C141.544 114.064 141.736 114.97 141.736 116.014C141.736 117.058 141.544 117.97 141.16 118.75C140.788 119.518 140.266 120.106 139.594 120.514C138.922 120.922 138.166 121.126 137.326 121.126C136.486 121.126 135.766 120.928 135.166 120.532C134.578 120.124 134.158 119.584 133.906 118.912V125.752H131.368V111.028H133.906V113.098C134.158 112.426 134.578 111.892 135.166 111.496C135.766 111.1 136.486 110.902 137.326 110.902ZM136.534 113.116C135.766 113.116 135.13 113.38 134.626 113.908C134.134 114.424 133.888 115.126 133.888 116.014C133.888 116.89 134.134 117.592 134.626 118.12C135.13 118.636 135.766 118.894 136.534 118.894C137.326 118.894 137.962 118.642 138.442 118.138C138.922 117.622 139.162 116.914 139.162 116.014C139.162 115.114 138.922 114.406 138.442 113.89C137.962 113.374 137.326 113.116 136.534 113.116ZM51.296 142.006C51.296 141.538 51.404 141.112 51.62 140.728C51.848 140.332 52.154 140.026 52.538 139.81C52.934 139.582 53.36 139.468 53.816 139.468C54.284 139.468 54.71 139.582 55.094 139.81C55.478 140.026 55.778 140.332 55.994 140.728C56.222 141.112 56.336 141.538 56.336 142.006C56.336 142.462 56.222 142.882 55.994 143.266C55.778 143.65 55.478 143.956 55.094 144.184C54.71 144.4 54.284 144.508 53.816 144.508C53.36 144.508 52.934 144.4 52.538 144.184C52.154 143.956 51.848 143.65 51.62 143.266C51.404 142.882 51.296 142.462 51.296 142.006ZM67.4348 148L64.4648 143.05H63.3488V148H60.8108V135.292H65.6528C67.1288 135.292 68.2508 135.652 69.0188 136.372C69.7988 137.092 70.1888 138.04 70.1888 139.216C70.1888 140.176 69.9188 140.98 69.3788 141.628C68.8508 142.276 68.0828 142.708 67.0748 142.924L70.2428 148H67.4348ZM63.3488 141.304H65.4368C66.8888 141.304 67.6148 140.662 67.6148 139.378C67.6148 138.766 67.4348 138.292 67.0748 137.956C66.7268 137.608 66.1808 137.434 65.4368 137.434H63.3488V141.304ZM80.4976 138.028V148H77.9596V145.984C77.6956 146.656 77.2576 147.184 76.6456 147.568C76.0456 147.94 75.3496 148.126 74.5576 148.126C73.4056 148.126 72.4876 147.748 71.8036 146.992C71.1196 146.236 70.7776 145.18 70.7776 143.824V138.028H73.2976V143.536C73.2976 144.328 73.5016 144.946 73.9096 145.39C74.3176 145.822 74.8696 146.038 75.5656 146.038C76.2976 146.038 76.8796 145.804 77.3116 145.336C77.7436 144.868 77.9596 144.196 77.9596 143.32V138.028H80.4976ZM87.8183 137.902C88.6583 137.902 89.4143 138.106 90.0863 138.514C90.7583 138.922 91.2803 139.516 91.6523 140.296C92.0363 141.064 92.2283 141.97 92.2283 143.014C92.2283 144.058 92.0363 144.97 91.6523 145.75C91.2803 146.518 90.7583 147.106 90.0863 147.514C89.4143 147.922 88.6583 148.126 87.8183 148.126C86.9783 148.126 86.2583 147.928 85.6583 147.532C85.0703 147.124 84.6503 146.584 84.3983 145.912V148H81.8603V134.68H84.3983V140.098C84.6503 139.426 85.0703 138.892 85.6583 138.496C86.2583 138.1 86.9783 137.902 87.8183 137.902ZM87.0263 140.116C86.2583 140.116 85.6223 140.38 85.1183 140.908C84.6263 141.424 84.3803 142.126 84.3803 143.014C84.3803 143.89 84.6263 144.592 85.1183 145.12C85.6223 145.636 86.2583 145.894 87.0263 145.894C87.8183 145.894 88.4543 145.642 88.9343 145.138C89.4143 144.622 89.6543 143.914 89.6543 143.014C89.6543 142.114 89.4143 141.406 88.9343 140.89C88.4543 140.374 87.8183 140.116 87.0263 140.116ZM94.7893 138.028L97.5073 144.796L100.027 138.028H102.817L96.7153 152.752H93.9073L96.1573 147.712L91.9633 138.028H94.7893ZM113.626 137.902C114.598 137.902 115.468 138.106 116.236 138.514C117.016 138.922 117.628 139.516 118.072 140.296C118.516 141.064 118.738 141.97 118.738 143.014C118.738 144.058 118.516 144.964 118.072 145.732C117.628 146.5 117.016 147.094 116.236 147.514C115.468 147.922 114.598 148.126 113.626 148.126C112.654 148.126 111.778 147.922 110.998 147.514C110.23 147.094 109.624 146.5 109.18 145.732C108.736 144.964 108.514 144.058 108.514 143.014C108.514 141.97 108.736 141.064 109.18 140.296C109.624 139.516 110.23 138.922 110.998 138.514C111.778 138.106 112.654 137.902 113.626 137.902ZM113.626 140.098C112.918 140.098 112.318 140.35 111.826 140.854C111.334 141.346 111.088 142.066 111.088 143.014C111.088 143.962 111.334 144.688 111.826 145.192C112.318 145.684 112.918 145.93 113.626 145.93C114.334 145.93 114.934 145.684 115.426 145.192C115.918 144.688 116.164 143.962 116.164 143.014C116.164 142.066 115.918 141.346 115.426 140.854C114.934 140.35 114.334 140.098 113.626 140.098ZM125.526 137.884C126.678 137.884 127.596 138.262 128.28 139.018C128.964 139.774 129.306 140.836 129.306 142.204V148H126.786V142.492C126.786 141.7 126.582 141.088 126.174 140.656C125.766 140.212 125.208 139.99 124.5 139.99C123.78 139.99 123.204 140.224 122.772 140.692C122.34 141.16 122.124 141.832 122.124 142.708V148H119.586V138.028H122.124V140.026C122.388 139.354 122.82 138.832 123.42 138.46C124.032 138.076 124.734 137.884 125.526 137.884ZM136.108 139.936C136.48 139.3 136.972 138.802 137.584 138.442C138.196 138.07 138.88 137.884 139.636 137.884V140.602H138.898C137.038 140.602 136.108 141.466 136.108 143.194V148H133.57V138.028H136.108V139.936ZM144.001 137.902C144.841 137.902 145.561 138.1 146.161 138.496C146.761 138.892 147.187 139.426 147.439 140.098V138.028H149.959V148H147.439V145.912C147.187 146.584 146.761 147.124 146.161 147.532C145.561 147.928 144.841 148.126 144.001 148.126C143.161 148.126 142.405 147.922 141.733 147.514C141.061 147.106 140.533 146.518 140.149 145.75C139.777 144.97 139.591 144.058 139.591 143.014C139.591 141.97 139.777 141.064 140.149 140.296C140.533 139.516 141.061 138.922 141.733 138.514C142.405 138.106 143.161 137.902 144.001 137.902ZM144.793 140.116C144.001 140.116 143.365 140.374 142.885 140.89C142.405 141.406 142.165 142.114 142.165 143.014C142.165 143.914 142.405 144.622 142.885 145.138C143.365 145.642 144.001 145.894 144.793 145.894C145.561 145.894 146.191 145.636 146.683 145.12C147.187 144.592 147.439 143.89 147.439 143.014C147.439 142.126 147.187 141.424 146.683 140.908C146.191 140.38 145.561 140.116 144.793 140.116ZM151.026 135.166C151.026 134.758 151.17 134.428 151.458 134.176C151.746 133.912 152.124 133.78 152.592 133.78C153.06 133.78 153.438 133.912 153.726 134.176C154.014 134.428 154.158 134.758 154.158 135.166C154.158 135.562 154.014 135.892 153.726 136.156C153.438 136.408 153.06 136.534 152.592 136.534C152.124 136.534 151.746 136.408 151.458 136.156C151.17 135.892 151.026 135.562 151.026 135.166ZM153.852 138.028V148H151.314V138.028H153.852ZM157.741 134.68V148H155.203V134.68H157.741ZM162.53 137.902C163.742 137.902 164.714 138.208 165.446 138.82C166.178 139.432 166.634 140.248 166.814 141.268H164.438C164.342 140.788 164.126 140.404 163.79 140.116C163.454 139.828 163.016 139.684 162.476 139.684C162.044 139.684 161.708 139.786 161.468 139.99C161.228 140.194 161.108 140.47 161.108 140.818C161.108 141.094 161.204 141.316 161.396 141.484C161.588 141.652 161.828 141.784 162.116 141.88C162.404 141.976 162.818 142.09 163.358 142.222C164.114 142.39 164.726 142.57 165.194 142.762C165.674 142.942 166.082 143.236 166.418 143.644C166.766 144.04 166.94 144.58 166.94 145.264C166.94 146.116 166.604 146.806 165.932 147.334C165.272 147.862 164.378 148.126 163.25 148.126C161.954 148.126 160.916 147.838 160.136 147.262C159.356 146.674 158.882 145.84 158.714 144.76H161.144C161.204 145.252 161.42 145.642 161.792 145.93C162.164 146.206 162.65 146.344 163.25 146.344C163.682 146.344 164.012 146.242 164.24 146.038C164.468 145.822 164.582 145.546 164.582 145.21C164.582 144.922 164.48 144.688 164.276 144.508C164.084 144.328 163.838 144.19 163.538 144.094C163.25 143.998 162.836 143.884 162.296 143.752C161.552 143.584 160.946 143.416 160.478 143.248C160.022 143.068 159.626 142.786 159.29 142.402C158.966 142.018 158.804 141.49 158.804 140.818C158.804 139.954 159.134 139.252 159.794 138.712C160.454 138.172 161.366 137.902 162.53 137.902ZM51.296 169.006C51.296 168.538 51.404 168.112 51.62 167.728C51.848 167.332 52.154 167.026 52.538 166.81C52.934 166.582 53.36 166.468 53.816 166.468C54.284 166.468 54.71 166.582 55.094 166.81C55.478 167.026 55.778 167.332 55.994 167.728C56.222 168.112 56.336 168.538 56.336 169.006C56.336 169.462 56.222 169.882 55.994 170.266C55.778 170.65 55.478 170.956 55.094 171.184C54.71 171.4 54.284 171.508 53.816 171.508C53.36 171.508 52.934 171.4 52.538 171.184C52.154 170.956 51.848 170.65 51.62 170.266C51.404 169.882 51.296 169.462 51.296 169.006ZM67.4348 175L64.4648 170.05H63.3488V175H60.8108V162.292H65.6528C67.1288 162.292 68.2508 162.652 69.0188 163.372C69.7988 164.092 70.1888 165.04 70.1888 166.216C70.1888 167.176 69.9188 167.98 69.3788 168.628C68.8508 169.276 68.0828 169.708 67.0748 169.924L70.2428 175H67.4348ZM63.3488 168.304H65.4368C66.8888 168.304 67.6148 167.662 67.6148 166.378C67.6148 165.766 67.4348 165.292 67.0748 164.956C66.7268 164.608 66.1808 164.434 65.4368 164.434H63.3488V168.304ZM79.6876 171.526C79.6876 172.174 79.5256 172.774 79.2016 173.326C78.8776 173.866 78.3976 174.304 77.7616 174.64C77.1256 174.964 76.3516 175.126 75.4396 175.126C74.5396 175.126 73.7356 174.976 73.0276 174.676C72.3196 174.364 71.7496 173.92 71.3176 173.344C70.8976 172.768 70.6576 172.096 70.5976 171.328H73.2976C73.3576 171.844 73.5616 172.276 73.9096 172.624C74.2696 172.96 74.7436 173.128 75.3316 173.128C75.8596 173.128 76.2616 172.99 76.5376 172.714C76.8256 172.426 76.9696 172.06 76.9696 171.616C76.9696 171.22 76.8556 170.896 76.6276 170.644C76.3996 170.38 76.1116 170.17 75.7636 170.014C75.4156 169.858 74.9356 169.678 74.3236 169.474C73.5316 169.21 72.8836 168.952 72.3796 168.7C71.8756 168.436 71.4436 168.058 71.0836 167.566C70.7356 167.074 70.5616 166.432 70.5616 165.64C70.5616 164.548 70.9516 163.69 71.7316 163.066C72.5236 162.43 73.5676 162.112 74.8636 162.112C76.2076 162.112 77.2756 162.436 78.0676 163.084C78.8716 163.732 79.3276 164.596 79.4356 165.676H76.6996C76.6276 165.22 76.4356 164.848 76.1236 164.56C75.8116 164.26 75.3856 164.11 74.8456 164.11C74.3776 164.11 73.9996 164.236 73.7116 164.488C73.4236 164.728 73.2796 165.082 73.2796 165.55C73.2796 165.922 73.3876 166.234 73.6036 166.486C73.8316 166.726 74.1136 166.924 74.4496 167.08C74.7976 167.236 75.2656 167.41 75.8536 167.602C76.6696 167.89 77.3296 168.16 77.8336 168.412C78.3496 168.664 78.7876 169.042 79.1476 169.546C79.5076 170.05 79.6876 170.71 79.6876 171.526ZM86.5702 164.902C87.4102 164.902 88.1662 165.106 88.8382 165.514C89.5102 165.922 90.0322 166.516 90.4042 167.296C90.7882 168.064 90.9802 168.97 90.9802 170.014C90.9802 171.058 90.7882 171.97 90.4042 172.75C90.0322 173.518 89.5102 174.106 88.8382 174.514C88.1662 174.922 87.4102 175.126 86.5702 175.126C85.7302 175.126 85.0102 174.928 84.4102 174.532C83.8222 174.124 83.4022 173.584 83.1502 172.912V179.752H80.6122V165.028H83.1502V167.098C83.4022 166.426 83.8222 165.892 84.4102 165.496C85.0102 165.1 85.7302 164.902 86.5702 164.902ZM85.7782 167.116C85.0102 167.116 84.3742 167.38 83.8702 167.908C83.3782 168.424 83.1322 169.126 83.1322 170.014C83.1322 170.89 83.3782 171.592 83.8702 172.12C84.3742 172.636 85.0102 172.894 85.7782 172.894C86.5702 172.894 87.2062 172.642 87.6862 172.138C88.1662 171.622 88.4062 170.914 88.4062 170.014C88.4062 169.114 88.1662 168.406 87.6862 167.89C87.2062 167.374 86.5702 167.116 85.7782 167.116ZM101.209 169.636C101.209 169.888 101.179 170.176 101.119 170.5H93.8113C93.8473 171.388 94.0873 172.042 94.5313 172.462C94.9753 172.882 95.5273 173.092 96.1873 173.092C96.7753 173.092 97.2613 172.948 97.6453 172.66C98.0413 172.372 98.2933 171.982 98.4013 171.49H101.083C100.951 172.186 100.669 172.81 100.237 173.362C99.8053 173.914 99.2473 174.346 98.5633 174.658C97.8913 174.97 97.1413 175.126 96.3133 175.126C95.3413 175.126 94.4773 174.922 93.7213 174.514C92.9653 174.094 92.3773 173.5 91.9573 172.732C91.5373 171.964 91.3273 171.058 91.3273 170.014C91.3273 168.97 91.5373 168.064 91.9573 167.296C92.3773 166.516 92.9653 165.922 93.7213 165.514C94.4773 165.106 95.3413 164.902 96.3133 164.902C97.2973 164.902 98.1553 165.106 98.8873 165.514C99.6313 165.922 100.201 166.486 100.597 167.206C101.005 167.914 101.209 168.724 101.209 169.636ZM98.6533 169.384C98.6893 168.568 98.4733 167.95 98.0053 167.53C97.5493 167.11 96.9853 166.9 96.3133 166.9C95.6293 166.9 95.0533 167.11 94.5853 167.53C94.1173 167.95 93.8593 168.568 93.8113 169.384H98.6533ZM106.548 164.902C107.832 164.902 108.9 165.25 109.752 165.946C110.616 166.642 111.156 167.59 111.372 168.79H108.69C108.582 168.262 108.336 167.848 107.952 167.548C107.568 167.236 107.082 167.08 106.494 167.08C105.822 167.08 105.258 167.332 104.802 167.836C104.358 168.328 104.136 169.054 104.136 170.014C104.136 170.974 104.358 171.706 104.802 172.21C105.258 172.702 105.822 172.948 106.494 172.948C107.082 172.948 107.568 172.798 107.952 172.498C108.336 172.186 108.582 171.766 108.69 171.238H111.372C111.156 172.438 110.616 173.386 109.752 174.082C108.9 174.778 107.832 175.126 106.548 175.126C105.576 175.126 104.712 174.922 103.956 174.514C103.2 174.094 102.612 173.5 102.192 172.732C101.772 171.964 101.562 171.058 101.562 170.014C101.562 168.97 101.772 168.064 102.192 167.296C102.612 166.516 103.2 165.922 103.956 165.514C104.712 165.106 105.576 164.902 106.548 164.902ZM51.296 196.006C51.296 195.538 51.404 195.112 51.62 194.728C51.848 194.332 52.154 194.026 52.538 193.81C52.934 193.582 53.36 193.468 53.816 193.468C54.284 193.468 54.71 193.582 55.094 193.81C55.478 194.026 55.778 194.332 55.994 194.728C56.222 195.112 56.336 195.538 56.336 196.006C56.336 196.462 56.222 196.882 55.994 197.266C55.778 197.65 55.478 197.956 55.094 198.184C54.71 198.4 54.284 198.508 53.816 198.508C53.36 198.508 52.934 198.4 52.538 198.184C52.154 197.956 51.848 197.65 51.62 197.266C51.404 196.882 51.296 196.462 51.296 196.006ZM66.5528 189.166C68.1368 189.166 69.4508 189.574 70.4948 190.39C71.5388 191.206 72.2288 192.316 72.5648 193.72H69.9008C69.6248 193.036 69.1928 192.496 68.6048 192.1C68.0288 191.704 67.3328 191.506 66.5168 191.506C65.8448 191.506 65.2388 191.674 64.6988 192.01C64.1588 192.346 63.7388 192.826 63.4388 193.45C63.1388 194.074 62.9888 194.806 62.9888 195.646C62.9888 196.474 63.1388 197.2 63.4388 197.824C63.7388 198.448 64.1588 198.928 64.6988 199.264C65.2388 199.6 65.8448 199.768 66.5168 199.768C67.3328 199.768 68.0288 199.57 68.6048 199.174C69.1928 198.778 69.6248 198.238 69.9008 197.554H72.5648C72.2288 198.958 71.5388 200.068 70.4948 200.884C69.4508 201.7 68.1368 202.108 66.5528 202.108C65.3408 202.108 64.2668 201.838 63.3308 201.298C62.4068 200.746 61.6868 199.978 61.1708 198.994C60.6668 198.01 60.4148 196.894 60.4148 195.646C60.4148 194.386 60.6668 193.264 61.1708 192.28C61.6868 191.296 62.4068 190.534 63.3308 189.994C64.2548 189.442 65.3288 189.166 66.5528 189.166ZM77.43 191.902C78.27 191.902 78.99 192.1 79.59 192.496C80.19 192.892 80.616 193.426 80.868 194.098V192.028H83.388V202H80.868V199.912C80.616 200.584 80.19 201.124 79.59 201.532C78.99 201.928 78.27 202.126 77.43 202.126C76.59 202.126 75.834 201.922 75.162 201.514C74.49 201.106 73.962 200.518 73.578 199.75C73.206 198.97 73.02 198.058 73.02 197.014C73.02 195.97 73.206 195.064 73.578 194.296C73.962 193.516 74.49 192.922 75.162 192.514C75.834 192.106 76.59 191.902 77.43 191.902ZM78.222 194.116C77.43 194.116 76.794 194.374 76.314 194.89C75.834 195.406 75.594 196.114 75.594 197.014C75.594 197.914 75.834 198.622 76.314 199.138C76.794 199.642 77.43 199.894 78.222 199.894C78.99 199.894 79.62 199.636 80.112 199.12C80.616 198.592 80.868 197.89 80.868 197.014C80.868 196.126 80.616 195.424 80.112 194.908C79.62 194.38 78.99 194.116 78.222 194.116ZM90.7011 191.902C91.5411 191.902 92.2971 192.106 92.9691 192.514C93.6411 192.922 94.1631 193.516 94.5351 194.296C94.9191 195.064 95.1111 195.97 95.1111 197.014C95.1111 198.058 94.9191 198.97 94.5351 199.75C94.1631 200.518 93.6411 201.106 92.9691 201.514C92.2971 201.922 91.5411 202.126 90.7011 202.126C89.8611 202.126 89.1411 201.928 88.5411 201.532C87.9531 201.124 87.5331 200.584 87.2811 199.912V206.752H84.7431V192.028H87.2811V194.098C87.5331 193.426 87.9531 192.892 88.5411 192.496C89.1411 192.1 89.8611 191.902 90.7011 191.902ZM89.9091 194.116C89.1411 194.116 88.5051 194.38 88.0011 194.908C87.5091 195.424 87.2631 196.126 87.2631 197.014C87.2631 197.89 87.5091 198.592 88.0011 199.12C88.5051 199.636 89.1411 199.894 89.9091 199.894C90.7011 199.894 91.3371 199.642 91.8171 199.138C92.2971 198.622 92.5371 197.914 92.5371 197.014C92.5371 196.114 92.2971 195.406 91.8171 194.89C91.3371 194.374 90.7011 194.116 89.9091 194.116ZM95.6742 189.166C95.6742 188.758 95.8182 188.428 96.1062 188.176C96.3942 187.912 96.7722 187.78 97.2402 187.78C97.7082 187.78 98.0862 187.912 98.3742 188.176C98.6622 188.428 98.8062 188.758 98.8062 189.166C98.8062 189.562 98.6622 189.892 98.3742 190.156C98.0862 190.408 97.7082 190.534 97.2402 190.534C96.7722 190.534 96.3942 190.408 96.1062 190.156C95.8182 189.892 95.6742 189.562 95.6742 189.166ZM98.5002 192.028V202H95.9622V192.028H98.5002ZM105.809 191.902C106.649 191.902 107.405 192.106 108.077 192.514C108.749 192.922 109.271 193.516 109.643 194.296C110.027 195.064 110.219 195.97 110.219 197.014C110.219 198.058 110.027 198.97 109.643 199.75C109.271 200.518 108.749 201.106 108.077 201.514C107.405 201.922 106.649 202.126 105.809 202.126C104.969 202.126 104.249 201.928 103.649 201.532C103.061 201.124 102.641 200.584 102.389 199.912V202H99.8511V188.68H102.389V194.098C102.641 193.426 103.061 192.892 103.649 192.496C104.249 192.1 104.969 191.902 105.809 191.902ZM105.017 194.116C104.249 194.116 103.613 194.38 103.109 194.908C102.617 195.424 102.371 196.126 102.371 197.014C102.371 197.89 102.617 198.592 103.109 199.12C103.613 199.636 104.249 199.894 105.017 199.894C105.809 199.894 106.445 199.642 106.925 199.138C107.405 198.622 107.645 197.914 107.645 197.014C107.645 196.114 107.405 195.406 106.925 194.89C106.445 194.374 105.809 194.116 105.017 194.116ZM114.976 191.902C115.816 191.902 116.536 192.1 117.136 192.496C117.736 192.892 118.162 193.426 118.414 194.098V192.028H120.934V202H118.414V199.912C118.162 200.584 117.736 201.124 117.136 201.532C116.536 201.928 115.816 202.126 114.976 202.126C114.136 202.126 113.38 201.922 112.708 201.514C112.036 201.106 111.508 200.518 111.124 199.75C110.752 198.97 110.566 198.058 110.566 197.014C110.566 195.97 110.752 195.064 111.124 194.296C111.508 193.516 112.036 192.922 112.708 192.514C113.38 192.106 114.136 191.902 114.976 191.902ZM115.768 194.116C114.976 194.116 114.34 194.374 113.86 194.89C113.38 195.406 113.14 196.114 113.14 197.014C113.14 197.914 113.38 198.622 113.86 199.138C114.34 199.642 114.976 199.894 115.768 199.894C116.536 199.894 117.166 199.636 117.658 199.12C118.162 198.592 118.414 197.89 118.414 197.014C118.414 196.126 118.162 195.424 117.658 194.908C117.166 194.38 116.536 194.116 115.768 194.116ZM124.827 193.936C125.199 193.3 125.691 192.802 126.303 192.442C126.915 192.07 127.599 191.884 128.355 191.884V194.602H127.617C125.757 194.602 124.827 195.466 124.827 197.194V202H122.289V192.028H124.827V193.936ZM132.721 191.902C133.561 191.902 134.281 192.1 134.881 192.496C135.481 192.892 135.907 193.426 136.159 194.098V192.028H138.679V202H136.159V199.912C135.907 200.584 135.481 201.124 134.881 201.532C134.281 201.928 133.561 202.126 132.721 202.126C131.881 202.126 131.125 201.922 130.453 201.514C129.781 201.106 129.253 200.518 128.869 199.75C128.497 198.97 128.311 198.058 128.311 197.014C128.311 195.97 128.497 195.064 128.869 194.296C129.253 193.516 129.781 192.922 130.453 192.514C131.125 192.106 131.881 191.902 132.721 191.902ZM133.513 194.116C132.721 194.116 132.085 194.374 131.605 194.89C131.125 195.406 130.885 196.114 130.885 197.014C130.885 197.914 131.125 198.622 131.605 199.138C132.085 199.642 132.721 199.894 133.513 199.894C134.281 199.894 134.911 199.636 135.403 199.12C135.907 198.592 136.159 197.89 136.159 197.014C136.159 196.126 135.907 195.424 135.403 194.908C134.911 194.38 134.281 194.116 133.513 194.116ZM51.296 223.006C51.296 222.538 51.404 222.112 51.62 221.728C51.848 221.332 52.154 221.026 52.538 220.81C52.934 220.582 53.36 220.468 53.816 220.468C54.284 220.468 54.71 220.582 55.094 220.81C55.478 221.026 55.778 221.332 55.994 221.728C56.222 222.112 56.336 222.538 56.336 223.006C56.336 223.462 56.222 223.882 55.994 224.266C55.778 224.65 55.478 224.956 55.094 225.184C54.71 225.4 54.284 225.508 53.816 225.508C53.36 225.508 52.934 225.4 52.538 225.184C52.154 224.956 51.848 224.65 51.62 224.266C51.404 223.882 51.296 223.462 51.296 223.006ZM69.5408 225.526C69.5408 226.174 69.3788 226.774 69.0548 227.326C68.7308 227.866 68.2508 228.304 67.6148 228.64C66.9788 228.964 66.2048 229.126 65.2928 229.126C64.3928 229.126 63.5888 228.976 62.8808 228.676C62.1728 228.364 61.6028 227.92 61.1708 227.344C60.7508 226.768 60.5108 226.096 60.4508 225.328H63.1508C63.2108 225.844 63.4148 226.276 63.7628 226.624C64.1228 226.96 64.5968 227.128 65.1848 227.128C65.7128 227.128 66.1148 226.99 66.3908 226.714C66.6788 226.426 66.8228 226.06 66.8228 225.616C66.8228 225.22 66.7088 224.896 66.4808 224.644C66.2528 224.38 65.9648 224.17 65.6168 224.014C65.2688 223.858 64.7888 223.678 64.1768 223.474C63.3848 223.21 62.7368 222.952 62.2328 222.7C61.7288 222.436 61.2968 222.058 60.9368 221.566C60.5888 221.074 60.4148 220.432 60.4148 219.64C60.4148 218.548 60.8048 217.69 61.5848 217.066C62.3768 216.43 63.4208 216.112 64.7168 216.112C66.0608 216.112 67.1288 216.436 67.9208 217.084C68.7248 217.732 69.1808 218.596 69.2888 219.676H66.5528C66.4808 219.22 66.2888 218.848 65.9768 218.56C65.6648 218.26 65.2388 218.11 64.6988 218.11C64.2308 218.11 63.8528 218.236 63.5648 218.488C63.2768 218.728 63.1328 219.082 63.1328 219.55C63.1328 219.922 63.2408 220.234 63.4568 220.486C63.6848 220.726 63.9668 220.924 64.3028 221.08C64.6508 221.236 65.1188 221.41 65.7068 221.602C66.5228 221.89 67.1828 222.16 67.6868 222.412C68.2028 222.664 68.6408 223.042 69.0008 223.546C69.3608 224.05 69.5408 224.71 69.5408 225.526ZM79.8434 223.636C79.8434 223.888 79.8134 224.176 79.7534 224.5H72.4454C72.4814 225.388 72.7214 226.042 73.1654 226.462C73.6094 226.882 74.1614 227.092 74.8214 227.092C75.4094 227.092 75.8954 226.948 76.2794 226.66C76.6754 226.372 76.9274 225.982 77.0354 225.49H79.7174C79.5854 226.186 79.3034 226.81 78.8714 227.362C78.4394 227.914 77.8814 228.346 77.1974 228.658C76.5254 228.97 75.7754 229.126 74.9474 229.126C73.9754 229.126 73.1114 228.922 72.3554 228.514C71.5994 228.094 71.0114 227.5 70.5914 226.732C70.1714 225.964 69.9614 225.058 69.9614 224.014C69.9614 222.97 70.1714 222.064 70.5914 221.296C71.0114 220.516 71.5994 219.922 72.3554 219.514C73.1114 219.106 73.9754 218.902 74.9474 218.902C75.9314 218.902 76.7894 219.106 77.5214 219.514C78.2654 219.922 78.8354 220.486 79.2314 221.206C79.6394 221.914 79.8434 222.724 79.8434 223.636ZM77.2874 223.384C77.3234 222.568 77.1074 221.95 76.6394 221.53C76.1834 221.11 75.6194 220.9 74.9474 220.9C74.2634 220.9 73.6874 221.11 73.2194 221.53C72.7514 221.95 72.4934 222.568 72.4454 223.384H77.2874ZM83.2381 215.68V229H80.7001V215.68H83.2381ZM93.9671 223.636C93.9671 223.888 93.9371 224.176 93.8771 224.5H86.5691C86.6051 225.388 86.8451 226.042 87.2891 226.462C87.7331 226.882 88.2851 227.092 88.9451 227.092C89.5331 227.092 90.0191 226.948 90.4031 226.66C90.7991 226.372 91.0511 225.982 91.1591 225.49H93.8411C93.7091 226.186 93.4271 226.81 92.9951 227.362C92.5631 227.914 92.0051 228.346 91.3211 228.658C90.6491 228.97 89.8991 229.126 89.0711 229.126C88.0991 229.126 87.2351 228.922 86.4791 228.514C85.7231 228.094 85.1351 227.5 84.7151 226.732C84.2951 225.964 84.0851 225.058 84.0851 224.014C84.0851 222.97 84.2951 222.064 84.7151 221.296C85.1351 220.516 85.7231 219.922 86.4791 219.514C87.2351 219.106 88.0991 218.902 89.0711 218.902C90.0551 218.902 90.9131 219.106 91.6451 219.514C92.3891 219.922 92.9591 220.486 93.3551 221.206C93.7631 221.914 93.9671 222.724 93.9671 223.636ZM91.4111 223.384C91.4471 222.568 91.2311 221.95 90.7631 221.53C90.3071 221.11 89.7431 220.9 89.0711 220.9C88.3871 220.9 87.8111 221.11 87.3431 221.53C86.8751 221.95 86.6171 222.568 86.5691 223.384H91.4111ZM100.764 218.884C101.916 218.884 102.834 219.262 103.518 220.018C104.202 220.774 104.544 221.836 104.544 223.204V229H102.024V223.492C102.024 222.7 101.82 222.088 101.412 221.656C101.004 221.212 100.446 220.99 99.7378 220.99C99.0178 220.99 98.4418 221.224 98.0098 221.692C97.5778 222.16 97.3618 222.832 97.3618 223.708V229H94.8238V219.028H97.3618V221.026C97.6258 220.354 98.0578 219.832 98.6578 219.46C99.2698 219.076 99.9718 218.884 100.764 218.884ZM105.544 216.166C105.544 215.758 105.688 215.428 105.976 215.176C106.264 214.912 106.642 214.78 107.11 214.78C107.578 214.78 107.956 214.912 108.244 215.176C108.532 215.428 108.676 215.758 108.676 216.166C108.676 216.562 108.532 216.892 108.244 217.156C107.956 217.408 107.578 217.534 107.11 217.534C106.642 217.534 106.264 217.408 105.976 217.156C105.688 216.892 105.544 216.562 105.544 216.166ZM108.37 219.028V229H105.832V219.028H108.37ZM119.261 219.028V229H116.723V226.984C116.459 227.656 116.021 228.184 115.409 228.568C114.809 228.94 114.113 229.126 113.321 229.126C112.169 229.126 111.251 228.748 110.567 227.992C109.883 227.236 109.541 226.18 109.541 224.824V219.028H112.061V224.536C112.061 225.328 112.265 225.946 112.673 226.39C113.081 226.822 113.633 227.038 114.329 227.038C115.061 227.038 115.643 226.804 116.075 226.336C116.507 225.868 116.723 225.196 116.723 224.32V219.028H119.261ZM133.314 218.884C134.526 218.884 135.48 219.262 136.176 220.018C136.884 220.762 137.238 221.824 137.238 223.204V229H134.718V223.492C134.718 222.724 134.52 222.136 134.124 221.728C133.74 221.308 133.206 221.098 132.522 221.098C131.814 221.098 131.25 221.32 130.83 221.764C130.41 222.208 130.2 222.856 130.2 223.708V229H127.68V223.492C127.68 222.724 127.482 222.136 127.086 221.728C126.702 221.308 126.168 221.098 125.484 221.098C124.776 221.098 124.212 221.32 123.792 221.764C123.372 222.208 123.162 222.856 123.162 223.708V229H120.624V219.028H123.162V220.918C123.426 220.27 123.84 219.772 124.404 219.424C124.98 219.064 125.646 218.884 126.402 218.884C127.206 218.884 127.902 219.076 128.49 219.46C129.09 219.844 129.54 220.396 129.84 221.116C130.152 220.432 130.614 219.892 131.226 219.496C131.85 219.088 132.546 218.884 133.314 218.884Z" fill="white"/>
</svg>
