<svg width="289" height="289" viewBox="0 0 289 289" fill="none" xmlns="http://www.w3.org/2000/svg">
<rect width="289" height="289" fill="#FEBF52"/>
<path d="M61.64 67.92C61.64 68.7067 61.44 69.42 61.04 70.06C60.64 70.7 60.0533 71.2067 59.28 71.58C58.5067 71.9533 57.58 72.14 56.5 72.14C54.86 72.14 53.5067 71.7467 52.44 70.96C51.3867 70.1733 50.8133 69.0533 50.72 67.6H54.9C54.94 68.0933 55.0933 68.46 55.36 68.7C55.6267 68.94 55.9533 69.06 56.34 69.06C56.6867 69.06 56.9533 68.9733 57.14 68.8C57.34 68.6267 57.44 68.38 57.44 68.06C57.44 67.6333 57.2467 67.3067 56.86 67.08C56.4733 66.84 55.86 66.58 55.02 66.3C54.1267 65.9933 53.3867 65.6933 52.8 65.4C52.2267 65.1067 51.7267 64.6667 51.3 64.08C50.8867 63.4933 50.68 62.74 50.68 61.82C50.68 60.94 50.9067 60.1867 51.36 59.56C51.8133 58.92 52.4333 58.44 53.22 58.12C54.0067 57.7867 54.9 57.62 55.9 57.62C57.5267 57.62 58.82 58.0067 59.78 58.78C60.7533 59.54 61.2867 60.6133 61.38 62H57.16C57.1067 61.56 56.9667 61.2333 56.74 61.02C56.5267 60.8067 56.24 60.7 55.88 60.7C55.5733 60.7 55.3333 60.78 55.16 60.94C54.9867 61.1 54.9 61.34 54.9 61.66C54.9 62.06 55.0867 62.3733 55.46 62.6C55.8467 62.8267 56.4467 63.08 57.26 63.36C58.1533 63.68 58.8933 63.9933 59.48 64.3C60.0667 64.6067 60.5733 65.0533 61 65.64C61.4267 66.2267 61.64 66.9867 61.64 67.92ZM70.3652 72L67.3052 67.36V72H63.3652V57.2H67.3052V65.14L70.3852 60.78H74.9652L70.6052 66.4L75.0852 72H70.3652ZM75.8577 57.68C75.8577 57.0933 76.071 56.6133 76.4977 56.24C76.9243 55.8533 77.4843 55.66 78.1777 55.66C78.871 55.66 79.4243 55.8533 79.8377 56.24C80.251 56.6133 80.4577 57.0933 80.4577 57.68C80.4577 58.24 80.2443 58.7067 79.8177 59.08C79.4043 59.4533 78.8577 59.64 78.1777 59.64C77.4843 59.64 76.9243 59.4533 76.4977 59.08C76.071 58.7067 75.8577 58.24 75.8577 57.68ZM80.1177 60.78V72H76.1777V60.78H80.1177ZM86.2309 57.2V72H82.2909V57.2H86.2309ZM92.3442 57.2V72H88.4042V57.2H92.3442ZM98.7775 60.64C100.258 60.64 101.438 61 102.318 61.72C103.198 62.44 103.751 63.3933 103.978 64.58H100.298C100.204 64.18 100.011 63.88 99.7175 63.68C99.4375 63.48 99.0908 63.38 98.6775 63.38C98.3842 63.38 98.1575 63.4467 97.9975 63.58C97.8508 63.7 97.7775 63.8733 97.7775 64.1C97.7775 64.38 97.9375 64.5933 98.2575 64.74C98.5908 64.8733 99.1308 65.0267 99.8775 65.2C100.744 65.3867 101.458 65.5867 102.018 65.8C102.591 66.0133 103.084 66.36 103.498 66.84C103.924 67.32 104.138 67.9667 104.138 68.78C104.138 69.4333 103.958 70.0133 103.598 70.52C103.238 71.0267 102.711 71.4267 102.018 71.72C101.338 72 100.531 72.14 99.5975 72.14C98.0242 72.14 96.7708 71.8 95.8375 71.12C94.9042 70.44 94.3375 69.4667 94.1375 68.2H97.9175C97.9708 68.6133 98.1442 68.92 98.4375 69.12C98.7442 69.32 99.1242 69.42 99.5775 69.42C99.8842 69.42 100.118 69.3533 100.278 69.22C100.438 69.0867 100.518 68.9133 100.518 68.7C100.518 68.38 100.344 68.1467 99.9975 68C99.6642 67.8533 99.1242 67.7067 98.3775 67.56C97.5242 67.3867 96.8242 67.2 96.2775 67C95.7308 66.7867 95.2508 66.4533 94.8375 66C94.4375 65.5333 94.2375 64.8933 94.2375 64.08C94.2375 63.0667 94.6308 62.24 95.4175 61.6C96.2042 60.96 97.3242 60.64 98.7775 60.64Z" fill="white"/>
<path d="M51.296 115.006C51.296 114.538 51.404 114.112 51.62 113.728C51.848 113.332 52.154 113.026 52.538 112.81C52.934 112.582 53.36 112.468 53.816 112.468C54.284 112.468 54.71 112.582 55.094 112.81C55.478 113.026 55.778 113.332 55.994 113.728C56.222 114.112 56.336 114.538 56.336 115.006C56.336 115.462 56.222 115.882 55.994 116.266C55.778 116.65 55.478 116.956 55.094 117.184C54.71 117.4 54.284 117.508 53.816 117.508C53.36 117.508 52.934 117.4 52.538 117.184C52.154 116.956 51.848 116.65 51.62 116.266C51.404 115.882 51.296 115.462 51.296 115.006ZM66.5528 108.166C68.1368 108.166 69.4508 108.574 70.4948 109.39C71.5388 110.206 72.2288 111.316 72.5648 112.72H69.9008C69.6248 112.036 69.1928 111.496 68.6048 111.1C68.0288 110.704 67.3328 110.506 66.5168 110.506C65.8448 110.506 65.2388 110.674 64.6988 111.01C64.1588 111.346 63.7388 111.826 63.4388 112.45C63.1388 113.074 62.9888 113.806 62.9888 114.646C62.9888 115.474 63.1388 116.2 63.4388 116.824C63.7388 117.448 64.1588 117.928 64.6988 118.264C65.2388 118.6 65.8448 118.768 66.5168 118.768C67.3328 118.768 68.0288 118.57 68.6048 118.174C69.1928 117.778 69.6248 117.238 69.9008 116.554H72.5648C72.2288 117.958 71.5388 119.068 70.4948 119.884C69.4508 120.7 68.1368 121.108 66.5528 121.108C65.3408 121.108 64.2668 120.838 63.3308 120.298C62.4068 119.746 61.6868 118.978 61.1708 117.994C60.6668 117.01 60.4148 115.894 60.4148 114.646C60.4148 113.386 60.6668 112.264 61.1708 111.28C61.6868 110.296 62.4068 109.534 63.3308 108.994C64.2548 108.442 65.3288 108.166 66.5528 108.166ZM78.132 110.902C79.104 110.902 79.974 111.106 80.742 111.514C81.522 111.922 82.134 112.516 82.578 113.296C83.022 114.064 83.244 114.97 83.244 116.014C83.244 117.058 83.022 117.964 82.578 118.732C82.134 119.5 81.522 120.094 80.742 120.514C79.974 120.922 79.104 121.126 78.132 121.126C77.16 121.126 76.284 120.922 75.504 120.514C74.736 120.094 74.13 119.5 73.686 118.732C73.242 117.964 73.02 117.058 73.02 116.014C73.02 114.97 73.242 114.064 73.686 113.296C74.13 112.516 74.736 111.922 75.504 111.514C76.284 111.106 77.16 110.902 78.132 110.902ZM78.132 113.098C77.424 113.098 76.824 113.35 76.332 113.854C75.84 114.346 75.594 115.066 75.594 116.014C75.594 116.962 75.84 117.688 76.332 118.192C76.824 118.684 77.424 118.93 78.132 118.93C78.84 118.93 79.44 118.684 79.932 118.192C80.424 117.688 80.67 116.962 80.67 116.014C80.67 115.066 80.424 114.346 79.932 113.854C79.44 113.35 78.84 113.098 78.132 113.098ZM87.9987 110.902C88.8387 110.902 89.5527 111.1 90.1407 111.496C90.7407 111.892 91.1727 112.426 91.4367 113.098V107.68H93.9567V121H91.4367V118.912C91.1727 119.584 90.7407 120.124 90.1407 120.532C89.5527 120.928 88.8387 121.126 87.9987 121.126C87.1587 121.126 86.4027 120.922 85.7307 120.514C85.0587 120.106 84.5307 119.518 84.1467 118.75C83.7747 117.97 83.5887 117.058 83.5887 116.014C83.5887 114.97 83.7747 114.064 84.1467 113.296C84.5307 112.516 85.0587 111.922 85.7307 111.514C86.4027 111.106 87.1587 110.902 87.9987 110.902ZM88.7907 113.116C87.9987 113.116 87.3627 113.374 86.8827 113.89C86.4027 114.406 86.1627 115.114 86.1627 116.014C86.1627 116.914 86.4027 117.622 86.8827 118.138C87.3627 118.642 87.9987 118.894 88.7907 118.894C89.5587 118.894 90.1887 118.636 90.6807 118.12C91.1847 117.592 91.4367 116.89 91.4367 116.014C91.4367 115.126 91.1847 114.424 90.6807 113.908C90.1887 113.38 89.5587 113.116 88.7907 113.116ZM104.69 115.636C104.69 115.888 104.66 116.176 104.6 116.5H97.2918C97.3278 117.388 97.5678 118.042 98.0118 118.462C98.4558 118.882 99.0078 119.092 99.6678 119.092C100.256 119.092 100.742 118.948 101.126 118.66C101.522 118.372 101.774 117.982 101.882 117.49H104.564C104.432 118.186 104.15 118.81 103.718 119.362C103.286 119.914 102.728 120.346 102.044 120.658C101.372 120.97 100.622 121.126 99.7938 121.126C98.8218 121.126 97.9578 120.922 97.2018 120.514C96.4458 120.094 95.8578 119.5 95.4378 118.732C95.0178 117.964 94.8078 117.058 94.8078 116.014C94.8078 114.97 95.0178 114.064 95.4378 113.296C95.8578 112.516 96.4458 111.922 97.2018 111.514C97.9578 111.106 98.8218 110.902 99.7938 110.902C100.778 110.902 101.636 111.106 102.368 111.514C103.112 111.922 103.682 112.486 104.078 113.206C104.486 113.914 104.69 114.724 104.69 115.636ZM102.134 115.384C102.17 114.568 101.954 113.95 101.486 113.53C101.03 113.11 100.466 112.9 99.7938 112.9C99.1098 112.9 98.5338 113.11 98.0658 113.53C97.5978 113.95 97.3398 114.568 97.2918 115.384H102.134ZM111.378 121L108.084 116.644V121H105.546V107.68H108.084V115.168L111.36 111.028H114.366L110.172 115.996L114.474 121H111.378ZM114.474 108.166C114.474 107.758 114.618 107.428 114.906 107.176C115.194 106.912 115.572 106.78 116.04 106.78C116.508 106.78 116.886 106.912 117.174 107.176C117.462 107.428 117.606 107.758 117.606 108.166C117.606 108.562 117.462 108.892 117.174 109.156C116.886 109.408 116.508 109.534 116.04 109.534C115.572 109.534 115.194 109.408 114.906 109.156C114.618 108.892 114.474 108.562 114.474 108.166ZM117.3 111.028V121H114.762V111.028H117.3ZM123.979 118.822V121H122.647C121.531 121 120.673 120.73 120.073 120.19C119.485 119.65 119.191 118.75 119.191 117.49V113.17H117.805V111.028H119.191V108.562H121.729V111.028H123.961V113.17H121.729V117.526C121.729 118.006 121.825 118.342 122.017 118.534C122.209 118.726 122.533 118.822 122.989 118.822H123.979ZM51.296 142.006C51.296 141.538 51.404 141.112 51.62 140.728C51.848 140.332 52.154 140.026 52.538 139.81C52.934 139.582 53.36 139.468 53.816 139.468C54.284 139.468 54.71 139.582 55.094 139.81C55.478 140.026 55.778 140.332 55.994 140.728C56.222 141.112 56.336 141.538 56.336 142.006C56.336 142.462 56.222 142.882 55.994 143.266C55.778 143.65 55.478 143.956 55.094 144.184C54.71 144.4 54.284 144.508 53.816 144.508C53.36 144.508 52.934 144.4 52.538 144.184C52.154 143.956 51.848 143.65 51.62 143.266C51.404 142.882 51.296 142.462 51.296 142.006ZM66.5528 135.166C68.1368 135.166 69.4508 135.574 70.4948 136.39C71.5388 137.206 72.2288 138.316 72.5648 139.72H69.9008C69.6248 139.036 69.1928 138.496 68.6048 138.1C68.0288 137.704 67.3328 137.506 66.5168 137.506C65.8448 137.506 65.2388 137.674 64.6988 138.01C64.1588 138.346 63.7388 138.826 63.4388 139.45C63.1388 140.074 62.9888 140.806 62.9888 141.646C62.9888 142.474 63.1388 143.2 63.4388 143.824C63.7388 144.448 64.1588 144.928 64.6988 145.264C65.2388 145.6 65.8448 145.768 66.5168 145.768C67.3328 145.768 68.0288 145.57 68.6048 145.174C69.1928 144.778 69.6248 144.238 69.9008 143.554H72.5648C72.2288 144.958 71.5388 146.068 70.4948 146.884C69.4508 147.7 68.1368 148.108 66.5528 148.108C65.3408 148.108 64.2668 147.838 63.3308 147.298C62.4068 146.746 61.6868 145.978 61.1708 144.994C60.6668 144.01 60.4148 142.894 60.4148 141.646C60.4148 140.386 60.6668 139.264 61.1708 138.28C61.6868 137.296 62.4068 136.534 63.3308 135.994C64.2548 135.442 65.3288 135.166 66.5528 135.166ZM78.132 137.902C79.104 137.902 79.974 138.106 80.742 138.514C81.522 138.922 82.134 139.516 82.578 140.296C83.022 141.064 83.244 141.97 83.244 143.014C83.244 144.058 83.022 144.964 82.578 145.732C82.134 146.5 81.522 147.094 80.742 147.514C79.974 147.922 79.104 148.126 78.132 148.126C77.16 148.126 76.284 147.922 75.504 147.514C74.736 147.094 74.13 146.5 73.686 145.732C73.242 144.964 73.02 144.058 73.02 143.014C73.02 141.97 73.242 141.064 73.686 140.296C74.13 139.516 74.736 138.922 75.504 138.514C76.284 138.106 77.16 137.902 78.132 137.902ZM78.132 140.098C77.424 140.098 76.824 140.35 76.332 140.854C75.84 141.346 75.594 142.066 75.594 143.014C75.594 143.962 75.84 144.688 76.332 145.192C76.824 145.684 77.424 145.93 78.132 145.93C78.84 145.93 79.44 145.684 79.932 145.192C80.424 144.688 80.67 143.962 80.67 143.014C80.67 142.066 80.424 141.346 79.932 140.854C79.44 140.35 78.84 140.098 78.132 140.098ZM87.9987 137.902C88.8387 137.902 89.5527 138.1 90.1407 138.496C90.7407 138.892 91.1727 139.426 91.4367 140.098V134.68H93.9567V148H91.4367V145.912C91.1727 146.584 90.7407 147.124 90.1407 147.532C89.5527 147.928 88.8387 148.126 87.9987 148.126C87.1587 148.126 86.4027 147.922 85.7307 147.514C85.0587 147.106 84.5307 146.518 84.1467 145.75C83.7747 144.97 83.5887 144.058 83.5887 143.014C83.5887 141.97 83.7747 141.064 84.1467 140.296C84.5307 139.516 85.0587 138.922 85.7307 138.514C86.4027 138.106 87.1587 137.902 87.9987 137.902ZM88.7907 140.116C87.9987 140.116 87.3627 140.374 86.8827 140.89C86.4027 141.406 86.1627 142.114 86.1627 143.014C86.1627 143.914 86.4027 144.622 86.8827 145.138C87.3627 145.642 87.9987 145.894 88.7907 145.894C89.5587 145.894 90.1887 145.636 90.6807 145.12C91.1847 144.592 91.4367 143.89 91.4367 143.014C91.4367 142.126 91.1847 141.424 90.6807 140.908C90.1887 140.38 89.5587 140.116 88.7907 140.116ZM104.69 142.636C104.69 142.888 104.66 143.176 104.6 143.5H97.2918C97.3278 144.388 97.5678 145.042 98.0118 145.462C98.4558 145.882 99.0078 146.092 99.6678 146.092C100.256 146.092 100.742 145.948 101.126 145.66C101.522 145.372 101.774 144.982 101.882 144.49H104.564C104.432 145.186 104.15 145.81 103.718 146.362C103.286 146.914 102.728 147.346 102.044 147.658C101.372 147.97 100.622 148.126 99.7938 148.126C98.8218 148.126 97.9578 147.922 97.2018 147.514C96.4458 147.094 95.8578 146.5 95.4378 145.732C95.0178 144.964 94.8078 144.058 94.8078 143.014C94.8078 141.97 95.0178 141.064 95.4378 140.296C95.8578 139.516 96.4458 138.922 97.2018 138.514C97.9578 138.106 98.8218 137.902 99.7938 137.902C100.778 137.902 101.636 138.106 102.368 138.514C103.112 138.922 103.682 139.486 104.078 140.206C104.486 140.914 104.69 141.724 104.69 142.636ZM102.134 142.384C102.17 141.568 101.954 140.95 101.486 140.53C101.03 140.11 100.466 139.9 99.7938 139.9C99.1098 139.9 98.5338 140.11 98.0658 140.53C97.5978 140.95 97.3398 141.568 97.2918 142.384H102.134ZM111.504 137.902C112.344 137.902 113.1 138.106 113.772 138.514C114.444 138.922 114.966 139.516 115.338 140.296C115.722 141.064 115.914 141.97 115.914 143.014C115.914 144.058 115.722 144.97 115.338 145.75C114.966 146.518 114.444 147.106 113.772 147.514C113.1 147.922 112.344 148.126 111.504 148.126C110.664 148.126 109.944 147.928 109.344 147.532C108.756 147.124 108.336 146.584 108.084 145.912V152.752H105.546V138.028H108.084V140.098C108.336 139.426 108.756 138.892 109.344 138.496C109.944 138.1 110.664 137.902 111.504 137.902ZM110.712 140.116C109.944 140.116 109.308 140.38 108.804 140.908C108.312 141.424 108.066 142.126 108.066 143.014C108.066 143.89 108.312 144.592 108.804 145.12C109.308 145.636 109.944 145.894 110.712 145.894C111.504 145.894 112.14 145.642 112.62 145.138C113.1 144.622 113.34 143.914 113.34 143.014C113.34 142.114 113.1 141.406 112.62 140.89C112.14 140.374 111.504 140.116 110.712 140.116ZM126.144 142.636C126.144 142.888 126.114 143.176 126.054 143.5H118.746C118.782 144.388 119.022 145.042 119.466 145.462C119.91 145.882 120.462 146.092 121.122 146.092C121.71 146.092 122.196 145.948 122.58 145.66C122.976 145.372 123.228 144.982 123.336 144.49H126.018C125.886 145.186 125.604 145.81 125.172 146.362C124.74 146.914 124.182 147.346 123.498 147.658C122.826 147.97 122.076 148.126 121.248 148.126C120.276 148.126 119.412 147.922 118.656 147.514C117.9 147.094 117.312 146.5 116.892 145.732C116.472 144.964 116.262 144.058 116.262 143.014C116.262 141.97 116.472 141.064 116.892 140.296C117.312 139.516 117.9 138.922 118.656 138.514C119.412 138.106 120.276 137.902 121.248 137.902C122.232 137.902 123.09 138.106 123.822 138.514C124.566 138.922 125.136 139.486 125.532 140.206C125.94 140.914 126.144 141.724 126.144 142.636ZM123.588 142.384C123.624 141.568 123.408 140.95 122.94 140.53C122.484 140.11 121.92 139.9 121.248 139.9C120.564 139.9 119.988 140.11 119.52 140.53C119.052 140.95 118.794 141.568 118.746 142.384H123.588ZM132.94 137.884C134.092 137.884 135.01 138.262 135.694 139.018C136.378 139.774 136.72 140.836 136.72 142.204V148H134.2V142.492C134.2 141.7 133.996 141.088 133.588 140.656C133.18 140.212 132.622 139.99 131.914 139.99C131.194 139.99 130.618 140.224 130.186 140.692C129.754 141.16 129.538 141.832 129.538 142.708V148H127V138.028H129.538V140.026C129.802 139.354 130.234 138.832 130.834 138.46C131.446 138.076 132.148 137.884 132.94 137.884ZM51.296 169.006C51.296 168.538 51.404 168.112 51.62 167.728C51.848 167.332 52.154 167.026 52.538 166.81C52.934 166.582 53.36 166.468 53.816 166.468C54.284 166.468 54.71 166.582 55.094 166.81C55.478 167.026 55.778 167.332 55.994 167.728C56.222 168.112 56.336 168.538 56.336 169.006C56.336 169.462 56.222 169.882 55.994 170.266C55.778 170.65 55.478 170.956 55.094 171.184C54.71 171.4 54.284 171.508 53.816 171.508C53.36 171.508 52.934 171.4 52.538 171.184C52.154 170.956 51.848 170.65 51.62 170.266C51.404 169.882 51.296 169.462 51.296 169.006ZM66.6968 162.166C68.2448 162.166 69.5288 162.55 70.5488 163.318C71.5688 164.074 72.2228 165.1 72.5108 166.396H69.8468C69.5948 165.82 69.1928 165.364 68.6408 165.028C68.1008 164.68 67.4588 164.506 66.7148 164.506C65.9828 164.506 65.3348 164.674 64.7708 165.01C64.2068 165.346 63.7688 165.826 63.4568 166.45C63.1448 167.074 62.9888 167.806 62.9888 168.646C62.9888 169.978 63.3428 171.016 64.0508 171.76C64.7708 172.504 65.7488 172.876 66.9848 172.876C67.8968 172.876 68.6768 172.606 69.3248 172.066C69.9848 171.526 70.4108 170.776 70.6028 169.816H66.3008V167.998H72.7268V170.446C72.5468 171.286 72.1928 172.06 71.6648 172.768C71.1488 173.476 70.4648 174.046 69.6128 174.478C68.7728 174.898 67.8068 175.108 66.7148 175.108C65.4668 175.108 64.3628 174.838 63.4028 174.298C62.4548 173.746 61.7168 172.984 61.1888 172.012C60.6728 171.028 60.4148 169.906 60.4148 168.646C60.4148 167.386 60.6728 166.27 61.1888 165.298C61.7168 164.314 62.4548 163.546 63.4028 162.994C64.3508 162.442 65.4488 162.166 66.6968 162.166ZM73.3942 162.166C73.3942 161.758 73.5382 161.428 73.8262 161.176C74.1142 160.912 74.4922 160.78 74.9602 160.78C75.4282 160.78 75.8062 160.912 76.0942 161.176C76.3822 161.428 76.5262 161.758 76.5262 162.166C76.5262 162.562 76.3822 162.892 76.0942 163.156C75.8062 163.408 75.4282 163.534 74.9602 163.534C74.4922 163.534 74.1142 163.408 73.8262 163.156C73.5382 162.892 73.3942 162.562 73.3942 162.166ZM76.2202 165.028V175H73.6822V165.028H76.2202ZM82.8992 172.822V175H81.5672C80.4512 175 79.5932 174.73 78.9932 174.19C78.4052 173.65 78.1112 172.75 78.1112 171.49V167.17H76.7252V165.028H78.1112V162.562H80.6492V165.028H82.8812V167.17H80.6492V171.526C80.6492 172.006 80.7452 172.342 80.9372 172.534C81.1292 172.726 81.4532 172.822 81.9092 172.822H82.8992ZM94.3105 162.292V175H91.7545V169.474H86.3185V175H83.7805V162.292H86.3185V167.44H91.7545V162.292H94.3105ZM105.208 165.028V175H102.67V172.984C102.406 173.656 101.968 174.184 101.356 174.568C100.756 174.94 100.06 175.126 99.2675 175.126C98.1155 175.126 97.1975 174.748 96.5135 173.992C95.8295 173.236 95.4875 172.18 95.4875 170.824V165.028H98.0075V170.536C98.0075 171.328 98.2115 171.946 98.6195 172.39C99.0275 172.822 99.5795 173.038 100.276 173.038C101.008 173.038 101.59 172.804 102.022 172.336C102.454 171.868 102.67 171.196 102.67 170.32V165.028H105.208ZM112.528 164.902C113.368 164.902 114.124 165.106 114.796 165.514C115.468 165.922 115.99 166.516 116.362 167.296C116.746 168.064 116.938 168.97 116.938 170.014C116.938 171.058 116.746 171.97 116.362 172.75C115.99 173.518 115.468 174.106 114.796 174.514C114.124 174.922 113.368 175.126 112.528 175.126C111.688 175.126 110.968 174.928 110.368 174.532C109.78 174.124 109.36 173.584 109.108 172.912V175H106.57V161.68H109.108V167.098C109.36 166.426 109.78 165.892 110.368 165.496C110.968 165.1 111.688 164.902 112.528 164.902ZM111.736 167.116C110.968 167.116 110.332 167.38 109.828 167.908C109.336 168.424 109.09 169.126 109.09 170.014C109.09 170.89 109.336 171.592 109.828 172.12C110.332 172.636 110.968 172.894 111.736 172.894C112.528 172.894 113.164 172.642 113.644 172.138C114.124 171.622 114.364 170.914 114.364 170.014C114.364 169.114 114.124 168.406 113.644 167.89C113.164 167.374 112.528 167.116 111.736 167.116ZM51.296 196.006C51.296 195.538 51.404 195.112 51.62 194.728C51.848 194.332 52.154 194.026 52.538 193.81C52.934 193.582 53.36 193.468 53.816 193.468C54.284 193.468 54.71 193.582 55.094 193.81C55.478 194.026 55.778 194.332 55.994 194.728C56.222 195.112 56.336 195.538 56.336 196.006C56.336 196.462 56.222 196.882 55.994 197.266C55.778 197.65 55.478 197.956 55.094 198.184C54.71 198.4 54.284 198.508 53.816 198.508C53.36 198.508 52.934 198.4 52.538 198.184C52.154 197.956 51.848 197.65 51.62 197.266C51.404 196.882 51.296 196.462 51.296 196.006ZM66.6968 189.166C68.2448 189.166 69.5288 189.55 70.5488 190.318C71.5688 191.074 72.2228 192.1 72.5108 193.396H69.8468C69.5948 192.82 69.1928 192.364 68.6408 192.028C68.1008 191.68 67.4588 191.506 66.7148 191.506C65.9828 191.506 65.3348 191.674 64.7708 192.01C64.2068 192.346 63.7688 192.826 63.4568 193.45C63.1448 194.074 62.9888 194.806 62.9888 195.646C62.9888 196.978 63.3428 198.016 64.0508 198.76C64.7708 199.504 65.7488 199.876 66.9848 199.876C67.8968 199.876 68.6768 199.606 69.3248 199.066C69.9848 198.526 70.4108 197.776 70.6028 196.816H66.3008V194.998H72.7268V197.446C72.5468 198.286 72.1928 199.06 71.6648 199.768C71.1488 200.476 70.4648 201.046 69.6128 201.478C68.7728 201.898 67.8068 202.108 66.7148 202.108C65.4668 202.108 64.3628 201.838 63.4028 201.298C62.4548 200.746 61.7168 199.984 61.1888 199.012C60.6728 198.028 60.4148 196.906 60.4148 195.646C60.4148 194.386 60.6728 193.27 61.1888 192.298C61.7168 191.314 62.4548 190.546 63.4028 189.994C64.3508 189.442 65.4488 189.166 66.6968 189.166ZM73.3942 189.166C73.3942 188.758 73.5382 188.428 73.8262 188.176C74.1142 187.912 74.4922 187.78 74.9602 187.78C75.4282 187.78 75.8062 187.912 76.0942 188.176C76.3822 188.428 76.5262 188.758 76.5262 189.166C76.5262 189.562 76.3822 189.892 76.0942 190.156C75.8062 190.408 75.4282 190.534 74.9602 190.534C74.4922 190.534 74.1142 190.408 73.8262 190.156C73.5382 189.892 73.3942 189.562 73.3942 189.166ZM76.2202 192.028V202H73.6822V192.028H76.2202ZM82.8992 199.822V202H81.5672C80.4512 202 79.5932 201.73 78.9932 201.19C78.4052 200.65 78.1112 199.75 78.1112 198.49V194.17H76.7252V192.028H78.1112V189.562H80.6492V192.028H82.8812V194.17H80.6492V198.526C80.6492 199.006 80.7452 199.342 80.9372 199.534C81.1292 199.726 81.4532 199.822 81.9092 199.822H82.8992ZM86.3185 200.056H90.5845V202H83.7805V189.292H86.3185V200.056ZM98.89 199.444H93.796L92.896 202H90.214L94.894 189.436H97.792L102.454 202H99.772L98.89 199.444ZM98.206 197.518L96.334 192.154L94.462 197.518H98.206ZM108.837 191.902C109.677 191.902 110.433 192.106 111.105 192.514C111.777 192.922 112.299 193.516 112.671 194.296C113.055 195.064 113.247 195.97 113.247 197.014C113.247 198.058 113.055 198.97 112.671 199.75C112.299 200.518 111.777 201.106 111.105 201.514C110.433 201.922 109.677 202.126 108.837 202.126C107.997 202.126 107.277 201.928 106.677 201.532C106.089 201.124 105.669 200.584 105.417 199.912V202H102.879V188.68H105.417V194.098C105.669 193.426 106.089 192.892 106.677 192.496C107.277 192.1 107.997 191.902 108.837 191.902ZM108.045 194.116C107.277 194.116 106.641 194.38 106.137 194.908C105.645 195.424 105.399 196.126 105.399 197.014C105.399 197.89 105.645 198.592 106.137 199.12C106.641 199.636 107.277 199.894 108.045 199.894C108.837 199.894 109.473 199.642 109.953 199.138C110.433 198.622 110.673 197.914 110.673 197.014C110.673 196.114 110.433 195.406 109.953 194.89C109.473 194.374 108.837 194.116 108.045 194.116ZM51.296 223.006C51.296 222.538 51.404 222.112 51.62 221.728C51.848 221.332 52.154 221.026 52.538 220.81C52.934 220.582 53.36 220.468 53.816 220.468C54.284 220.468 54.71 220.582 55.094 220.81C55.478 221.026 55.778 221.332 55.994 221.728C56.222 222.112 56.336 222.538 56.336 223.006C56.336 223.462 56.222 223.882 55.994 224.266C55.778 224.65 55.478 224.956 55.094 225.184C54.71 225.4 54.284 225.508 53.816 225.508C53.36 225.508 52.934 225.4 52.538 225.184C52.154 224.956 51.848 224.65 51.62 224.266C51.404 223.882 51.296 223.462 51.296 223.006ZM69.4508 216.292V218.308H65.9408V229H63.4028V218.308H59.9108V216.292H69.4508ZM79.2809 223.636C79.2809 223.888 79.2509 224.176 79.1909 224.5H71.8829C71.9189 225.388 72.1589 226.042 72.6029 226.462C73.0469 226.882 73.5989 227.092 74.2589 227.092C74.8469 227.092 75.3329 226.948 75.7169 226.66C76.1129 226.372 76.3649 225.982 76.4729 225.49H79.1549C79.0229 226.186 78.7409 226.81 78.3089 227.362C77.8769 227.914 77.3189 228.346 76.6349 228.658C75.9629 228.97 75.2129 229.126 74.3849 229.126C73.4129 229.126 72.5489 228.922 71.7929 228.514C71.0369 228.094 70.4489 227.5 70.0289 226.732C69.6089 225.964 69.3989 225.058 69.3989 224.014C69.3989 222.97 69.6089 222.064 70.0289 221.296C70.4489 220.516 71.0369 219.922 71.7929 219.514C72.5489 219.106 73.4129 218.902 74.3849 218.902C75.3689 218.902 76.2269 219.106 76.9589 219.514C77.7029 219.922 78.2729 220.486 78.6689 221.206C79.0769 221.914 79.2809 222.724 79.2809 223.636ZM76.7249 223.384C76.7609 222.568 76.5449 221.95 76.0769 221.53C75.6209 221.11 75.0569 220.9 74.3849 220.9C73.7009 220.9 73.1249 221.11 72.6569 221.53C72.1889 221.95 71.9309 222.568 71.8829 223.384H76.7249ZM82.6756 220.936C83.0476 220.3 83.5396 219.802 84.1516 219.442C84.7636 219.07 85.4476 218.884 86.2036 218.884V221.602H85.4656C83.6056 221.602 82.6756 222.466 82.6756 224.194V229H80.1376V219.028H82.6756V220.936ZM99.3533 218.884C100.565 218.884 101.519 219.262 102.215 220.018C102.923 220.762 103.277 221.824 103.277 223.204V229H100.757V223.492C100.757 222.724 100.559 222.136 100.163 221.728C99.7793 221.308 99.2453 221.098 98.5613 221.098C97.8533 221.098 97.2893 221.32 96.8693 221.764C96.4493 222.208 96.2393 222.856 96.2393 223.708V229H93.7193V223.492C93.7193 222.724 93.5213 222.136 93.1253 221.728C92.7413 221.308 92.2073 221.098 91.5233 221.098C90.8153 221.098 90.2513 221.32 89.8313 221.764C89.4113 222.208 89.2013 222.856 89.2013 223.708V229H86.6633V219.028H89.2013V220.918C89.4653 220.27 89.8793 219.772 90.4433 219.424C91.0193 219.064 91.6853 218.884 92.4413 218.884C93.2453 218.884 93.9413 219.076 94.5293 219.46C95.1293 219.844 95.5793 220.396 95.8793 221.116C96.1913 220.432 96.6533 219.892 97.2653 219.496C97.8893 219.088 98.5853 218.884 99.3533 218.884ZM104.274 216.166C104.274 215.758 104.418 215.428 104.706 215.176C104.994 214.912 105.372 214.78 105.84 214.78C106.308 214.78 106.686 214.912 106.974 215.176C107.262 215.428 107.406 215.758 107.406 216.166C107.406 216.562 107.262 216.892 106.974 217.156C106.686 217.408 106.308 217.534 105.84 217.534C105.372 217.534 104.994 217.408 104.706 217.156C104.418 216.892 104.274 216.562 104.274 216.166ZM107.1 219.028V229H104.562V219.028H107.1ZM114.391 218.884C115.543 218.884 116.461 219.262 117.145 220.018C117.829 220.774 118.171 221.836 118.171 223.204V229H115.651V223.492C115.651 222.7 115.447 222.088 115.039 221.656C114.631 221.212 114.073 220.99 113.365 220.99C112.645 220.99 112.069 221.224 111.637 221.692C111.205 222.16 110.989 222.832 110.989 223.708V229H108.451V219.028H110.989V221.026C111.253 220.354 111.685 219.832 112.285 219.46C112.897 219.076 113.599 218.884 114.391 218.884ZM123.365 218.902C124.205 218.902 124.925 219.1 125.525 219.496C126.125 219.892 126.551 220.426 126.803 221.098V219.028H129.323V229H126.803V226.912C126.551 227.584 126.125 228.124 125.525 228.532C124.925 228.928 124.205 229.126 123.365 229.126C122.525 229.126 121.769 228.922 121.097 228.514C120.425 228.106 119.897 227.518 119.513 226.75C119.141 225.97 118.955 225.058 118.955 224.014C118.955 222.97 119.141 222.064 119.513 221.296C119.897 220.516 120.425 219.922 121.097 219.514C121.769 219.106 122.525 218.902 123.365 218.902ZM124.157 221.116C123.365 221.116 122.729 221.374 122.249 221.89C121.769 222.406 121.529 223.114 121.529 224.014C121.529 224.914 121.769 225.622 122.249 226.138C122.729 226.642 123.365 226.894 124.157 226.894C124.925 226.894 125.555 226.636 126.047 226.12C126.551 225.592 126.803 224.89 126.803 224.014C126.803 223.126 126.551 222.424 126.047 221.908C125.555 221.38 124.925 221.116 124.157 221.116ZM133.216 215.68V229H130.678V215.68H133.216Z" fill="white"/>
<g opacity="0.5" clip-path="url(#clip0_67_1133)">
<path d="M237.997 198.951C236.347 198.951 235.009 200.289 235.009 201.939C235.009 203.589 236.347 204.927 237.997 204.927C247.885 204.927 255.93 212.97 255.93 222.857C255.93 224.507 257.268 225.845 258.918 225.845C260.568 225.845 261.906 224.507 261.906 222.857C261.906 209.675 251.181 198.951 237.997 198.951Z" fill="white"/>
<path d="M230.298 187.802C216.797 190.623 205.85 201.466 202.969 215.051C200.537 226.522 203.534 238.039 211.192 246.648C214.936 250.856 217.083 256.411 217.083 261.904V267.88C217.083 271.857 219.686 275.235 223.277 276.405C224.458 283.382 230.514 288.997 238.001 288.997C245.485 288.997 251.543 283.384 252.724 276.405C256.315 275.235 258.918 271.857 258.918 267.88V261.903C258.918 256.4 261.072 250.912 264.983 246.45C270.707 239.92 273.86 231.541 273.86 222.857C273.86 200.232 253.151 183.028 230.298 187.802ZM238.001 283.021C234.159 283.021 230.791 280.378 229.547 276.825H246.453C245.21 280.378 241.842 283.021 238.001 283.021ZM252.942 267.88C252.942 269.528 251.601 270.868 249.954 270.868H226.047C224.4 270.868 223.059 269.528 223.059 267.88V264.892H252.942V267.88ZM260.489 242.511C256.321 247.266 253.757 252.999 253.106 258.915H222.895C222.246 252.996 219.688 247.206 215.658 242.676C209.276 235.501 206.782 225.883 208.816 216.29C211.19 205.091 220.314 195.994 231.52 193.653C250.65 189.655 267.883 204.021 267.883 222.857C267.883 230.091 265.257 237.071 260.489 242.511Z" fill="white"/>
<path d="M195.965 222.857H189.988C188.338 222.857 187 224.195 187 225.845C187 227.495 188.338 228.833 189.988 228.833H195.965C197.615 228.833 198.953 227.495 198.953 225.845C198.953 224.195 197.615 222.857 195.965 222.857Z" fill="white"/>
<path d="M197.202 207.916L192.976 203.69C191.809 202.523 189.917 202.523 188.75 203.69C187.583 204.857 187.583 206.749 188.75 207.916L192.976 212.142C194.143 213.309 196.035 213.309 197.202 212.142C198.369 210.975 198.369 209.083 197.202 207.916Z" fill="white"/>
<path d="M197.202 239.549C196.035 238.382 194.143 238.382 192.976 239.549L188.75 243.775C187.583 244.942 187.583 246.834 188.75 248.001C189.917 249.168 191.809 249.169 192.976 248.001L197.202 243.775C198.369 242.608 198.369 240.716 197.202 239.549Z" fill="white"/>
<path d="M286.012 222.857H280.035C278.385 222.857 277.047 224.195 277.047 225.845C277.047 227.495 278.385 228.833 280.035 228.833H286.012C287.662 228.833 289 227.495 289 225.845C289 224.195 287.662 222.857 286.012 222.857Z" fill="white"/>
<path d="M287.249 203.69C286.082 202.523 284.19 202.523 283.023 203.69L278.797 207.916C277.63 209.083 277.63 210.975 278.797 212.142C279.964 213.309 281.856 213.309 283.023 212.142L287.249 207.916C288.416 206.749 288.416 204.857 287.249 203.69Z" fill="white"/>
<path d="M287.249 243.775L283.023 239.549C281.856 238.382 279.964 238.382 278.797 239.549C277.63 240.716 277.63 242.608 278.797 243.775L283.023 248.001C284.19 249.168 286.082 249.168 287.249 248.001C288.416 246.834 288.416 244.942 287.249 243.775Z" fill="white"/>
</g>
<defs>
<clipPath id="clip0_67_1133">
<rect width="102" height="102" fill="white" transform="translate(187 187)"/>
</clipPath>
</defs>
</svg>
